<?xml version="1.0" standalone="no"?>
<!DOCTYPE svg PUBLIC "-//W3C//DTD SVG 20010904//EN"
 "http://www.w3.org/TR/2001/REC-SVG-20010904/DTD/svg10.dtd">
<svg version="1.0" xmlns="http://www.w3.org/2000/svg"
 width="1137.000000pt" height="367.000000pt" viewBox="0 0 1137.000000 367.000000"
 preserveAspectRatio="xMidYMid meet">

<g transform="translate(0.000000,367.000000) scale(0.100000,-0.100000)"
fill="#000000" stroke="none">
<path d="M1795 2336 c-18 -26 -11 -52 16 -67 43 -22 86 36 53 72 -23 26 -50
24 -69 -5z"/>
<path d="M5125 2336 c-18 -26 -11 -52 16 -67 43 -22 86 36 53 72 -23 26 -50
24 -69 -5z"/>
<path d="M2517 2323 c-4 -3 -7 -30 -7 -60 0 -39 -4 -53 -14 -53 -8 0 -18 5
-21 10 -3 6 -28 10 -55 10 -37 0 -55 -6 -79 -26 -58 -49 -64 -152 -13 -213 32
-39 93 -51 144 -30 24 10 33 10 36 1 2 -7 22 -12 48 -12 l44 0 0 190 0 190
-38 0 c-21 0 -42 -3 -45 -7z m-23 -185 c34 -49 8 -118 -45 -118 -61 0 -91 73
-49 118 27 29 74 29 94 0z"/>
<path d="M4348 2273 c-3 -52 -5 -58 -23 -55 -107 19 -152 6 -181 -51 -35 -66
-12 -166 45 -200 34 -20 89 -22 127 -5 22 10 28 10 32 0 2 -7 21 -12 43 -12
49 0 49 -2 46 210 l-2 165 -42 3 -42 3 -3 -58z m-23 -133 c39 -43 10 -120 -43
-120 -14 0 -34 7 -44 17 -23 20 -24 80 -1 105 21 24 65 23 88 -2z"/>
<path d="M1464 2307 c-2 -7 -3 -89 -2 -182 l3 -170 43 -3 42 -3 0 50 c0 80 1
81 91 81 l79 0 0 35 0 35 -79 0 c-84 0 -91 4 -91 54 0 37 19 46 101 46 76 0
77 0 82 27 3 16 3 31 0 35 -2 5 -63 8 -134 8 -96 0 -131 -3 -135 -13z"/>
<path d="M1790 2228 c-1 -6 -1 -253 -1 -266 1 -9 14 -12 44 -10 l42 3 0 135 0
135 -42 3 c-24 2 -43 2 -43 0z"/>
<path d="M1957 2223 c-10 -9 -8 -246 2 -261 5 -8 23 -12 47 -10 l39 3 5 90 c5
81 7 91 28 101 32 16 62 6 73 -23 5 -13 9 -58 9 -99 l0 -75 43 3 42 3 3 70 c5
101 -5 149 -35 179 -31 31 -95 36 -132 10 -22 -16 -24 -16 -33 0 -9 16 -77 23
-91 9z"/>
<path d="M2770 2222 c0 -5 23 -63 50 -128 59 -140 61 -167 10 -172 -41 -4 -60
-18 -60 -42 0 -32 99 -42 138 -14 28 20 39 40 102 204 29 74 55 141 57 148 4
10 -5 13 -38 10 l-44 -3 -26 -80 c-14 -44 -30 -80 -34 -80 -10 0 -19 18 -47
95 -24 65 -24 65 -66 68 -23 2 -42 -1 -42 -6z"/>
<path d="M3165 2218 c-78 -43 -103 -115 -66 -192 26 -53 68 -76 138 -76 91 0
153 57 153 143 0 84 -59 137 -151 137 -30 0 -63 -6 -74 -12z m119 -80 c51 -72
-33 -159 -94 -98 -43 43 -14 120 45 120 24 0 39 -7 49 -22z"/>
<path d="M3440 2120 c0 -110 0 -112 29 -141 33 -33 93 -40 127 -14 25 19 34
19 34 0 0 -11 12 -15 45 -15 l45 0 0 141 0 140 -42 -3 -43 -3 -5 -85 c-3 -47
-9 -91 -13 -97 -11 -17 -62 -17 -75 0 -6 7 -12 51 -14 97 l-3 85 -42 3 -43 3
0 -111z"/>
<path d="M3800 2090 l0 -140 45 0 45 0 0 78 c0 89 13 116 60 125 27 6 30 10
30 42 0 39 -19 46 -54 20 -25 -19 -36 -19 -36 0 0 11 -12 15 -45 15 l-45 0 0
-140z"/>
<path d="M4575 2220 c-43 -17 -85 -83 -85 -132 0 -41 39 -105 74 -122 47 -22
124 -20 164 4 38 23 40 33 10 54 -15 11 -26 12 -39 6 -38 -21 -109 -5 -109 25
0 11 20 15 93 17 l92 3 -1 41 c-1 45 -26 86 -62 103 -27 13 -108 13 -137 1z
m103 -62 c26 -26 13 -38 -38 -38 -34 0 -50 4 -50 13 0 21 22 37 50 37 14 0 31
-5 38 -12z"/>
<path d="M4875 2218 c-31 -17 -45 -39 -45 -73 0 -39 22 -61 86 -84 85 -30 47
-68 -39 -40 -40 13 -56 5 -57 -29 0 -24 70 -44 134 -40 49 4 63 9 83 32 46 54
19 104 -72 135 -53 18 -66 44 -27 49 13 2 38 -2 54 -9 27 -11 32 -10 44 6 8
10 14 24 14 31 0 29 -132 46 -175 22z"/>
<path d="M5118 2223 c-4 -8 -4 -144 0 -230 l2 -43 45 0 46 0 -3 138 -3 137
-42 3 c-22 2 -43 -1 -45 -5z"/>
<path d="M5308 2207 c-34 -29 -48 -58 -48 -102 0 -41 18 -81 49 -109 25 -23
110 -27 134 -7 21 16 30 -1 17 -33 -14 -37 -77 -47 -141 -21 -10 4 -19 -3 -27
-20 -16 -35 -17 -34 23 -51 45 -18 128 -18 169 1 58 28 66 55 66 219 l0 146
-38 0 c-21 0 -43 -5 -49 -11 -8 -8 -17 -8 -31 0 -35 19 -94 13 -124 -12z m140
-59 c7 -7 12 -29 12 -50 0 -29 -6 -41 -26 -55 -24 -15 -29 -15 -53 -2 -61 34
-45 119 22 119 18 0 38 -5 45 -12z"/>
<path d="M5630 2090 l0 -140 45 0 45 0 0 83 c0 68 3 87 18 99 28 24 48 28 71
12 19 -14 21 -25 21 -105 l0 -89 46 0 46 0 -4 116 c-3 113 -4 116 -31 140 -33
28 -101 33 -133 9 -25 -19 -34 -19 -34 0 0 11 -12 15 -45 15 l-45 0 0 -140z"/>
<path d="M3390 1690 c-11 -11 -20 -24 -20 -30 0 -15 38 -50 53 -50 18 0 47 32
47 53 0 15 -35 47 -52 47 -5 0 -17 -9 -28 -20z"/>
<path d="M1667 1673 c-4 -3 -7 -31 -7 -61 0 -52 -1 -54 -22 -46 -13 4 -47 8
-76 8 -48 1 -57 -2 -82 -31 -98 -110 2 -288 132 -236 36 14 40 14 51 -2 9 -11
24 -16 47 -13 l35 3 3 193 2 192 -38 0 c-21 0 -42 -3 -45 -7z m-28 -176 c21
-26 24 -75 7 -102 -20 -30 -69 -34 -98 -8 -24 22 -24 77 2 103 23 23 72 26 89
7z"/>
<path d="M3892 1488 l3 -193 35 -3 c22 -2 38 2 45 12 10 13 16 13 52 1 99 -34
189 53 168 164 -18 93 -89 129 -192 96 -21 -7 -22 -4 -25 51 l-3 59 -43 3 -42
3 2 -193z m197 -4 c40 -51 16 -114 -44 -114 -39 0 -65 28 -65 70 0 67 69 94
109 44z"/>
<path d="M1834 1567 c-2 -7 -3 -71 -2 -143 l3 -129 40 0 40 0 5 85 c3 47 9 91
13 97 4 7 22 16 40 21 28 7 32 13 35 45 4 42 -4 45 -50 21 -28 -15 -32 -15
-40 0 -11 20 -76 22 -84 3z"/>
<path d="M2113 1565 c-51 -22 -75 -69 -70 -138 3 -46 9 -63 31 -86 49 -51 129
-59 204 -19 27 14 28 29 2 53 -16 14 -23 15 -34 6 -22 -19 -74 -16 -96 4 -11
10 -17 22 -13 26 5 5 49 9 98 11 l90 3 -2 37 c-1 21 -10 50 -20 64 -33 50
-123 69 -190 39z m112 -61 c26 -26 12 -39 -40 -39 -27 0 -50 5 -52 11 -6 18
26 44 52 44 13 0 31 -7 40 -16z"/>
<path d="M2425 1568 c-37 -14 -46 -27 -34 -50 8 -15 19 -17 67 -12 62 5 89 -5
79 -30 -5 -12 -21 -16 -67 -16 -51 0 -65 -4 -85 -25 -70 -69 16 -170 111 -130
34 14 39 14 55 -1 10 -9 30 -14 46 -12 l28 3 3 100 c2 55 0 110 -3 123 -13 52
-119 79 -200 50z m115 -166 c0 -25 -20 -42 -50 -42 -35 0 -52 18 -39 42 14 26
89 26 89 0z"/>
<path d="M2707 1573 c-4 -3 -7 -66 -7 -139 0 -133 0 -134 24 -140 55 -13 61
-6 66 87 3 51 11 93 19 103 16 19 64 21 79 3 6 -7 12 -53 14 -103 l3 -89 40 0
40 0 5 86 c3 51 11 93 19 103 16 19 66 21 78 4 4 -7 10 -53 13 -103 l5 -90 40
0 40 0 3 90 c4 112 -9 160 -48 180 -16 8 -41 15 -55 15 -31 0 -81 -24 -87 -42
-3 -9 -15 -4 -37 15 -38 32 -93 36 -130 10 -22 -15 -25 -15 -36 0 -12 17 -75
24 -88 10z"/>
<path d="M3380 1438 c0 -79 -4 -148 -8 -154 -4 -6 -17 -14 -28 -18 -24 -7 -39
-45 -24 -60 16 -16 75 -11 104 8 40 26 46 53 46 217 l0 149 -45 0 -45 0 0
-142z"/>
<path d="M3592 1560 c-95 -58 -94 -194 2 -243 78 -40 180 -15 218 54 25 45 18
121 -14 157 -49 53 -146 68 -206 32z m128 -70 c43 -43 14 -120 -45 -120 -39 0
-65 28 -65 70 0 63 67 93 110 50z"/>
</g>
</svg>
