<?xml version="1.0" standalone="yes"?>
<svg xmlns="http://www.w3.org/2000/svg" width="1137" height="367">
<path style="fill:#f1f5f8; stroke:none;" d="M0 0L0 367L1137 367L1137 0L0 0z"/>
<path style="fill:#b5cbe9; stroke:none;" d="M809 168C805.217 165.335 800.707 158.477 796 157.921C790.524 157.275 780.233 169.909 777.337 174C770.47 183.701 793.467 189.099 788.263 197.787C784.526 204.026 770.11 204.965 764.004 209.221C759.708 212.214 757.104 216.932 752.826 219.811C744.271 225.568 734.493 226.902 728.224 236.004C723.991 242.149 725.028 248.892 721.972 255C719.671 259.599 703.023 270.395 708.758 276.253C714.978 282.607 720.419 266.063 726.536 270.466C733.954 275.805 736.602 283.438 747 284L747 283C740.548 281.752 727.297 273.906 728.007 266C728.326 262.446 732.544 259.922 731.863 256.148C731.24 252.694 726.666 253.53 725.328 250.683C721.439 242.408 734.913 230.066 741 227.035C755.984 219.576 743.214 233.289 741.047 237.999C739.055 242.331 742.795 245.736 747.001 243.802C755.235 240.015 762.67 229.37 768.999 223C771.471 220.512 775.128 217.626 775.879 214C776.491 211.043 774.402 208.398 773 206C781.027 203.494 790.879 207.247 791 197C796.476 199.553 801.087 208.381 807 209.079C810.905 209.539 814.586 204.409 817 202C820.051 198.955 825.12 195.325 826.338 191C828.371 183.781 813.778 174.363 810 169C817.738 172.608 821.836 180.83 829 185.258C837.357 190.423 851.604 187.628 861 188.039C864.427 188.189 868.574 189.718 871.892 188.393C879.221 185.465 878.961 162.312 887.105 163.086C899.885 164.302 903.994 182.213 911.012 189.154C912.926 191.046 916.625 189.232 919 189.562C923.842 190.236 928.165 193.141 933 194L933 193C927.059 190.344 919.222 189.321 914.039 185.428C908.103 180.969 904.504 173.842 898.961 168.87C895.662 165.912 886.973 161.985 887.103 156.96C887.271 150.538 892.374 141.907 894.847 136C900.509 122.48 905.815 108.728 910.95 95C912.044 92.0748 920.04 77.1191 914.696 75.8812C909.269 74.624 899.632 88.1627 896.116 91.5787C882.862 104.455 866.587 117.582 855.48 132.326C849.371 140.434 858.505 147.861 846 152L846 153L850 153C845.608 158.558 839.896 160.225 834 156L845 152C841.499 152.836 834.251 155.15 830.904 153.498C824.073 150.126 827.112 139.266 831.189 135.189C837.755 128.623 845.009 134.528 851.535 130.347C866.632 120.677 879.776 102.41 892.424 89.7184C896.025 86.1057 909.976 76.0651 908.94 70.3217C908.092 65.6224 898.205 71.021 896 71.8233C883.245 76.4636 870.622 81.5969 858 86.6011C843.051 92.528 827.903 97.9882 813 104.014C808.471 105.845 799.666 107.838 797.028 112.225C795.256 115.17 795.995 119.713 796 123C796.014 131.608 795.177 147.298 799.028 155C801.51 159.964 806.617 162.889 809 168z"/>
<path style="fill:#7d9cca; stroke:none;" d="M915 76C906.075 80.6299 899.054 89.946 892 97C880.55 108.45 865.747 119.745 856.448 133C851.447 140.129 857.851 148.476 849.815 155.606C836.397 167.512 817.851 148.516 829.394 135.105C836.492 126.857 843.824 133.538 851 129.356C866.854 120.119 881.011 99.9892 894 87C899.158 81.8423 906.835 76.5524 908 69C891.244 71.8853 873.971 81.976 858 87.9499C842.905 93.5957 827.959 99.6164 813 105.6C808.821 107.272 799.636 108.835 797.603 113.275C795.432 118.019 797.937 124.996 797.996 130C798.081 137.164 797.156 147.072 799.703 153.826C803.025 162.634 815.552 170.731 822.08 177.247C824.993 180.154 828.014 183.971 832.001 185.4C837.123 187.237 845.516 186.851 851 186.985C855.837 187.104 868.506 189.649 872.351 186.968C876.976 183.744 879.133 173.084 881.051 168C887.243 151.587 894.125 135.412 900.316 119C904.91 106.819 916.155 89.0788 915 76z"/>
<path style="fill:#b5cbe9; stroke:none;" d="M907 90C900.272 93.1377 895.199 99.8011 890 105C880.711 114.289 867.584 123.86 860.604 135C855.335 143.411 861.094 152.08 850.996 159.501C834.956 171.288 813.649 151.696 824.854 135.004C832.186 124.083 841.12 130.003 850 124.397C856.738 120.143 862.384 112.616 868 107C877.282 97.7175 888.436 88.7382 896 78C871.775 83.6071 848.262 96.3208 825 105.05C819.323 107.18 804.166 110.343 801.603 116.214C799.706 120.562 801.874 126.465 801.985 131C802.147 137.613 801.244 145.686 803.603 152C806.809 160.585 824.632 177.828 833 181.486C838.858 184.047 845.82 182.666 852 183.09C857.077 183.437 864.75 185.763 869.581 183.397C875.072 180.707 878.315 164.541 880.424 159C889.099 136.216 900.575 113.538 907 90M655 138C649.252 148.767 632.572 149.938 631.56 164C631.05 171.094 637.805 180.483 645 181.516C652.389 182.578 661.427 181 669 181L727 181L727 180C707.702 175.405 683.833 179 664 179C656.437 179 644.155 180.245 638.108 174.812C632.131 169.443 632.01 161.237 637.171 155.33C640.434 151.595 643.922 153.203 647.505 150.937C651.28 148.55 652.465 143.99 656.961 141.959C659.777 140.687 664.021 141.846 666.39 139.973C668.791 138.075 669.131 131.802 670.967 128.996C677.033 119.721 688.734 112.968 700 114.174C707.908 115.02 715.632 118.921 720.772 125.015C722.646 127.237 723.304 131.28 725.588 132.961C730.092 136.277 736.075 134.449 740.959 139.105C746.604 144.487 744.944 150.795 753 153C748.767 140.447 738.98 136.482 729.04 129.906C714.091 120.015 704.064 106.981 684 115.677C672.142 120.816 668.016 137.296 655 138M178 133C185.084 130.081 188.918 133.916 186 141C192.47 134.657 184.343 126.53 178 133M513 141C510.081 133.916 513.916 130.081 521 133C514.657 126.53 506.53 134.657 513 141z"/>
<path style="fill:#7d9cca; stroke:none;" d="M180 131L178 134L180 131z"/>
<path style="fill:#6d7581; stroke:none;" d="M178 137L179 137C182.157 130.82 187.159 133.824 185 140C191.34 133.688 180.702 127.689 178 137z"/>
<path style="fill:#7d9cca; stroke:none;" d="M185 131L186 132L185 131M513 131L511 134L513 131z"/>
<path style="fill:#6d7581; stroke:none;" d="M514 140C510.965 129.54 523.968 134.905 515 140C519.591 140.622 522.793 134.54 517.852 132.086C512.111 129.235 510.712 136.727 514 140z"/>
<path style="fill:#7d9cca; stroke:none;" d="M518 131L519 132L518 131M725 131L725 133L728 133L728 131L725 131z"/>
<path style="fill:#2f3849; stroke:none;" d="M181.318 133.086C177.543 135.248 180.993 140.865 184.682 138.863C188.493 136.796 185.062 130.941 181.318 133.086z"/>
<path style="fill:#7d9cca; stroke:none;" d="M186 132L187 133L186 132z"/>
<path style="fill:#b5cbe9; stroke:none;" d="M248 145L249 146L251 133C266.861 133.056 261 159.242 261 171C264.288 163.165 263.373 145.427 261.772 137.019C260.96 132.758 255.359 130.056 251.603 133.028C248.849 135.207 249.804 141.756 248 145M433 144L420 143L420 144L434 146C434 142.052 438.451 124.827 443.397 136.148C446.992 144.379 445.051 164.386 443 173C447.932 166.49 445.003 151.017 445 143C444.999 140.226 445.676 135.945 443.821 133.603C436.466 124.317 433 139.497 433 144z"/>
<path style="fill:#2f3849; stroke:none;" d="M514.329 133.086C510.712 135.212 513.991 140.938 517.693 138.762C521.421 136.571 517.992 130.933 514.329 133.086z"/>
<path style="fill:#7d9cca; stroke:none;" d="M519 132L520 133L519 132M187 133L188 134L187 133M251.667 133.333L252.333 133.667L251.667 133.333z"/>
<path style="fill:#6d7581; stroke:none;" d="M253 133L253 134L258 134L253 133z"/>
<path style="fill:#7d9cca; stroke:none;" d="M258.667 133.333L259.333 133.667L258.667 133.333M434 134L434 135L444 135L434 134M520 133L521 134L520 133z"/>
<path style="fill:#b5cbe9; stroke:none;" d="M147 173L146 135L174 135L173 143L175 134C168.551 134 151.725 130.971 146.603 135.028C144.251 136.891 145.001 141.383 145 144C144.997 150.584 141.937 168.576 147 173M177 134L177 138L178 138L177 134z"/>
<path style="fill:#6d7581; stroke:none;" d="M251 134L249 146L249 147C253.511 146.033 252.912 137.318 251 134z"/>
<path style="fill:#2f3849; stroke:none;" d="M252 134L252 147C246.325 145.483 240.528 142.867 235.105 146.728C226.952 152.533 228.683 167.265 238.004 170.848C242.956 172.752 247.227 170.019 252 169L252 172L258.972 170.397L260 162L258.972 135.603L252 134z"/>
<path style="fill:#6d7581; stroke:none;" d="M259 134L260 135L259 134M435 134L434 146L427 144L427 145C435.448 147.207 438.453 142.229 435 134z"/>
<path style="fill:#2f3849; stroke:none;" d="M436 134C436 136.974 437.088 143.108 434.397 145.187C429.259 149.154 421.61 141.171 415.879 149.109C410.656 156.343 413.094 168.194 422.004 171.003C426.135 172.306 428.952 170.129 432.91 170.178C435.714 170.213 438.69 173.076 441.4 170.968C444.079 168.884 443 162.951 443 160C443 151.821 447.046 134.363 436 134z"/>
<path style="fill:#6d7581; stroke:none;" d="M442 134L443 135L442 134z"/>
<path style="fill:#b5cbe9; stroke:none;" d="M521 134L521 138L522 138L521 134z"/>
<path style="fill:#7d9cca; stroke:none;" d="M146 135L147 136L146 135z"/>
<path style="fill:#6d7581; stroke:none;" d="M146 172L147 172L147 136L173 136L173 141C176.14 132.736 151.845 132.668 147.603 136.028C145.082 138.025 146 143.197 146 146L146 172z"/>
<path style="fill:#7d9cca; stroke:none;" d="M173 135L174 136L173 135M260 135C260 144.408 263.73 164.436 258 172L258 173C263.875 169.191 262.663 141.346 260 135z"/>
<path style="fill:#6d7581; stroke:none;" d="M443 135L443 161L440.697 170.914L428 171L428 172L441.682 171.968L444 163L443 135z"/>
<path style="fill:#2f3849; stroke:none;" d="M147 136L147 172C156.006 171.893 155 166.57 155 159C161.574 159 171.027 161.456 172 153C161.574 153 155.009 154.268 155 142L173 142L173 136L147 136z"/>
<path style="fill:#7d9cca; stroke:none;" d="M434 136L434 143L435 143L434 136M178 137L182 141L182 140L178 137z"/>
<path style="fill:#b5cbe9; stroke:none;" d="M625 138L629 139L625 138z"/>
<path style="fill:#7d9cca; stroke:none;" d="M663 140L667 139L663 140z"/>
<path style="fill:#6d7581; stroke:none;" d="M179 138L180 139L179 138z"/>
<path style="fill:#7d9cca; stroke:none;" d="M187 138L188 139L187 138M511 138L512 139L511 138M520 138L517 140L517 141L520 138z"/>
<path style="fill:#b5cbe9; stroke:none;" d="M701 138L701 139L704 139L701 138M178 139L179 140L178 139z"/>
<path style="fill:#6d7581; stroke:none;" d="M180.667 139.333L181.333 139.667L180.667 139.333z"/>
<path style="fill:#7d9cca; stroke:none;" d="M186 139L187 140L186 139M512 139L513 140L512 139z"/>
<path style="fill:#b5cbe9; stroke:none;" d="M520 139L521 140L520 139M179 140L180 141L179 140z"/>
<path style="fill:#6d7581; stroke:none;" d="M182.667 140.333L183.333 140.667L182.667 140.333z"/>
<path style="fill:#7d9cca; stroke:none;" d="M184.667 140.333L185.333 140.667L184.667 140.333M513.667 140.333L514.333 140.667L513.667 140.333z"/>
<path style="fill:#b5cbe9; stroke:none;" d="M519 140L520 141L519 140z"/>
<path style="fill:#7d9cca; stroke:none;" d="M173 141L174 142L173 141z"/>
<path style="fill:#b5cbe9; stroke:none;" d="M178 144C192.917 140.501 188 163.408 188 173C190.583 166.845 190.554 151.62 188.682 145.133C187.239 140.133 180.622 140.559 178 144M511 173L512 173C510.246 165.633 509.928 155.527 511.148 148.019C511.768 144.206 516.123 141.364 519.397 144.604C523.924 149.085 521 165.898 521 172C523.615 165.769 525.47 138.941 514.108 141.663C506.77 143.42 509.334 167.364 511 173z"/>
<path style="fill:#6d7581; stroke:none;" d="M155 142C155.001 154.646 161.027 153 172 153L171 159L172 159C174.719 145.931 153.186 158.258 157 142L155 142z"/>
<path style="fill:#7d9cca; stroke:none;" d="M157 142L157 143L173 143L157 142z"/>
<path style="fill:#b5cbe9; stroke:none;" d="M195 173L196 173C194.705 167.56 191.95 147.491 197.318 144.032C200.687 141.862 204.532 145.188 208 145C190.425 133.132 191.58 162.498 195 173M209 143L209 144L219 144L209 143M228 157L229 157C230.024 147.068 237.541 142.323 247 144C237.767 137.701 228.468 147.998 228 157M276 148L277 148L276 144L287 145C282.917 140.83 274.738 140.496 276 148M297 145L307 143L307 147C310.166 140.492 299.912 142.027 297 145M317 143L317 144L330 144L317 143M342 164L343 164C343 159.035 341.182 149.571 344.028 145.318C351.566 134.051 353 156.882 353 160C354.54 156.329 355.22 148.024 353.397 144.318C351.703 140.877 344.973 141.403 343.028 144.318C340.068 148.754 342 158.815 342 164M362 145L363 145C376.296 134.941 373.478 166.794 372 173C375.577 168.278 375.825 150.71 373.397 145.148C371.335 140.426 364.32 141.422 362 145M379 143L379 144C383.497 142.933 386.527 142.721 390 146L398 143C399.028 147.538 398.805 150.541 394 152C399.086 153.967 402.235 147.167 398.397 143.647C395.405 140.902 382.787 141.881 379 143M458 143L458 144C466.99 142.87 473.501 144.352 478 153C479.463 142.948 464.777 141.387 458 143M488 143L488 144L501 144L488 143M533 143L533 144L543 144L533 143M544 144L544 145C560.992 139.7 556 160.514 556 172C560.52 161.229 560.4 137.051 544 144M562 143L562 144C566.497 142.933 569.527 142.721 573 146C581.071 142.892 588.682 142.328 592 152L593 152C590.9 141.622 581.095 140.757 573 145C570.461 141.084 566.089 141.792 562 143M156 143L156 151L157 151L156 143z"/>
<path style="fill:#7d9cca; stroke:none;" d="M178 144L178 145L188 145L178 144M195 144L195 145L205 145L195 144M212 143L212 144L217 144L212 143M239 143L239 144L245 144L239 143M276 146L277 146C280.369 143.464 283.124 144.066 286 147C286.13 141.521 278.259 142.515 276 146M297 147L298 147L307 144C302.87 142.272 299.189 143.031 297 147M320 143L320 144L327 144L320 143M343 165L344 165L344 144L353 145C340.521 135.548 343 158.721 343 165M363 143L363 144L367 144L363 143z"/>
<path style="fill:#6d7581; stroke:none;" d="M367 143L368 144L367 143z"/>
<path style="fill:#7d9cca; stroke:none;" d="M368 143L368 144L372 144C372 151.649 374.711 165.782 370 172C373.576 172.59 372.994 167.661 373 165C373.015 158.716 376.119 143.977 368 143M380 143C377.597 151.129 377.597 164.871 380 173L381 173L380 143z"/>
<path style="fill:#6d7581; stroke:none;" d="M381 143C378.648 150.957 376.231 172.646 387 173L387 172L381 172L381 143z"/>
<path style="fill:#7d9cca; stroke:none;" d="M382 143L382 144L389 144L382 143M396 143L396 144L399 145L396 143M423 143L423 144L428 144L423 143M461 143L461 144L468 144L461 143M491 143L491 144L498 144L491 143M511 144L511 145L520 144L511 144M535 143L535 144L540 144L535 143M542 144L542 145L556 145L542 144M565 173L565 172C560.289 165.782 563 151.649 563 144L572 144C557.851 138.065 558.53 168.806 565 173M579 143L579 144L585 144L579 143z"/>
<path style="fill:#6d7581; stroke:none;" d="M179 144L178 171L179 171L179 144z"/>
<path style="fill:#2f3849; stroke:none;" d="M179 172C188.398 171.889 191.5 152.536 185.972 145.604C180.971 139.332 179.006 150.083 179 153L179 160L179 172z"/>
<path style="fill:#6d7581; stroke:none;" d="M186 144L187 145L186 144M196 144C194.431 149.308 192.354 167.179 196.603 171.396C205.827 180.549 205 158.532 205 155L204 155C204 159.107 205.076 165.032 203.397 168.851C201.977 172.08 198.023 172.08 196.603 168.851C193.471 161.725 197.175 151.528 196 144z"/>
<path style="fill:#2f3849; stroke:none;" d="M217 172C226.723 171.681 227.104 152.169 220.697 146.703C215.322 142.117 209.352 145.821 204 148C202.985 144.943 198.692 142.081 196.603 146.318C194.817 149.944 194.264 168.395 197.603 170.968C199.45 172.391 202.377 171.751 203.397 169.682C205.577 165.258 202.652 159.59 205.179 155.109C210.711 145.3 216.915 157.039 216.996 163C217.037 165.999 217 169.001 217 172z"/>
<path style="fill:#6d7581; stroke:none;" d="M203 144L204 145L203 144z"/>
<path style="fill:#7d9cca; stroke:none;" d="M208 144L207 146L208 144z"/>
<path style="fill:#6d7581; stroke:none;" d="M209 144L209 145L213 145L209 144M216 144L216 145L223 148L216 144z"/>
<path style="fill:#7d9cca; stroke:none;" d="M219 144L220 145L219 144z"/>
<path style="fill:#b5cbe9; stroke:none;" d="M220 144L222 146L222 144L220 144z"/>
<path style="fill:#7d9cca; stroke:none;" d="M236 144L237 145L236 144z"/>
<path style="fill:#6d7581; stroke:none;" d="M237 144L237 145L241 145L237 144M243 144L243 145L248 146L243 144z"/>
<path style="fill:#7d9cca; stroke:none;" d="M247 144L248 145L247 144M250.333 144.667L250.667 145.333L250.333 144.667z"/>
<path style="fill:#6d7581; stroke:none;" d="M277 144L278 145L277 144z"/>
<path style="fill:#2f3849; stroke:none;" d="M277 145C280.297 151.941 295.356 177.147 279 175L277 180C295.624 185.902 302.532 159.6 306 145L299 144L293 162C288.043 155.568 287.484 142.016 277 145z"/>
<path style="fill:#6d7581; stroke:none;" d="M284 144L285 145L284 144M305 144L305 149L306 149L305 144z"/>
<path style="fill:#b5cbe9; stroke:none;" d="M308 152L309 152L316 145C311.809 144.786 309.453 148.412 308 152z"/>
<path style="fill:#7d9cca; stroke:none;" d="M316 144L317 145L316 144z"/>
<path style="fill:#6d7581; stroke:none;" d="M309 153L310 153C312.901 148.211 316.38 145.61 322 145C316.062 142.711 311.054 147.81 309 153z"/>
<path style="fill:#2f3849; stroke:none;" d="M322 144.529C303.118 146.269 306.311 173.572 325 171.66C343.879 169.728 340.857 142.792 322 144.529z"/>
<path style="fill:#6d7581; stroke:none;" d="M325 144L325 145C339.096 146.531 339.301 158.87 334 169C344.253 160.18 337.985 144.675 325 144z"/>
<path style="fill:#7d9cca; stroke:none;" d="M330 144L331 145L330 144z"/>
<path style="fill:#b5cbe9; stroke:none;" d="M331 144L331 145L334 146L331 144z"/>
<path style="fill:#6d7581; stroke:none;" d="M344 144L345 145L344 144z"/>
<path style="fill:#2f3849; stroke:none;" d="M363 168L364 172C376.328 171.854 376.328 144.146 364 144L363.999 153C363.97 158.482 358.4 170.693 353.028 160.941C350.568 156.475 354.124 149.556 350.972 145.604C349.566 143.84 346.434 143.84 345.028 145.604C343.225 147.865 344 152.315 344 155C344 167.74 350.306 175.975 363 168z"/>
<path style="fill:#6d7581; stroke:none;" d="M351 144L352 145L351 144M363 144C363 148.854 365.066 160.067 359.772 162.762C351.216 167.119 353 148.861 353 145L352 145C352 149.816 350.288 158.774 353.603 162.681C356.452 166.039 361.619 164.7 363.258 160.891C365.075 156.666 364.741 148.149 363 144M371 144L372 145L371 144z"/>
<path style="fill:#2f3849; stroke:none;" d="M381 144L381 172L388 172L389.179 156.044L398 145L389 148L388 144L381 144z"/>
<path style="fill:#6d7581; stroke:none;" d="M388 144L392 147L392 146L388 144z"/>
<path style="fill:#7d9cca; stroke:none;" d="M393 144L394 145L393 144z"/>
<path style="fill:#6d7581; stroke:none;" d="M394 144L394 145L398 145L394 144z"/>
<path style="fill:#b5cbe9; stroke:none;" d="M412 153L413 153L419 145C414.721 144.906 413.08 149.365 412 153z"/>
<path style="fill:#7d9cca; stroke:none;" d="M419 144L418 146L419 144z"/>
<path style="fill:#6d7581; stroke:none;" d="M420 144L420 145L424 145L420 144z"/>
<path style="fill:#7d9cca; stroke:none;" d="M430 144L431 145L430 144z"/>
<path style="fill:#b5cbe9; stroke:none;" d="M449 165L450 165C448.41 156.434 449.609 150.332 457 145C447.591 144.8 447.488 158.65 449 165z"/>
<path style="fill:#7d9cca; stroke:none;" d="M457 144L458 145L457 144z"/>
<path style="fill:#6d7581; stroke:none;" d="M451 151L452 151L462 145C457.076 143.297 453.259 146.872 451 151z"/>
<path style="fill:#2f3849; stroke:none;" d="M458 160L478 158C476.98 153.909 476.532 149.627 472.811 147.005C463.034 140.117 449.659 147.1 450.133 159C450.453 167.004 457.266 172.01 465 171.736C467.349 171.653 475.183 170.23 473.654 166.314C472.458 163.25 467.241 165.734 465.015 165.587C461.452 165.353 459.693 162.769 458 160z"/>
<path style="fill:#6d7581; stroke:none;" d="M466 144L466 145L474 147L466 144z"/>
<path style="fill:#7d9cca; stroke:none;" d="M470 144L471 145L470 144z"/>
<path style="fill:#b5cbe9; stroke:none;" d="M482 149L483 149L487 145L482 149z"/>
<path style="fill:#7d9cca; stroke:none;" d="M487 144L488 145L487 144z"/>
<path style="fill:#6d7581; stroke:none;" d="M483 150L484 150L492 145C487.695 143.528 484.843 146.264 483 150z"/>
<path style="fill:#2f3849; stroke:none;" d="M498 166L483 165C484.418 173.576 499.861 174.131 503.817 166.891C509.738 156.057 492.056 158.384 492.056 152.019C492.056 147.083 502.775 153.318 504 146C498.587 144.95 476.76 143.333 484.183 155.66C487.422 161.039 494.957 159.912 498 166z"/>
<path style="fill:#6d7581; stroke:none;" d="M496 144L496 145L503 146L496 144z"/>
<path style="fill:#7d9cca; stroke:none;" d="M501 144L502 145L501 144z"/>
<path style="fill:#b5cbe9; stroke:none;" d="M502 144L502 145L506 146L506 145L502 144z"/>
<path style="fill:#6d7581; stroke:none;" d="M512 144C509.988 150.808 507.871 170.532 516 173L516 172C507.956 167.564 513.206 151.731 512 144z"/>
<path style="fill:#2f3849; stroke:none;" d="M520 172L520 160L520 153C519.994 150.083 518.029 139.332 513.028 145.604C507.5 152.536 510.603 171.889 520 172z"/>
<path style="fill:#6d7581; stroke:none;" d="M519 144L520 172L521 172C521 165.53 523.975 148.347 519 144z"/>
<path style="fill:#b5cbe9; stroke:none;" d="M525 155L526 155L532 145C526.996 144.891 525.432 150.813 525 155z"/>
<path style="fill:#7d9cca; stroke:none;" d="M532 144L533 145L532 144z"/>
<path style="fill:#6d7581; stroke:none;" d="M528 149L536 145C532.328 144.038 530.21 146.211 528 149z"/>
<path style="fill:#2f3849; stroke:none;" d="M548 168C543.588 176.791 538.62 175.97 530 174L528 179C546.653 184.965 555 178.036 555 159C555 155.35 556.049 149.672 554.397 146.318C552.571 142.614 548.596 144.54 547 147C542.354 145.512 537.823 143.252 533.018 145.576C524.707 149.598 524.607 162.284 532.055 167.258C536.998 170.559 542.66 167.633 548 168z"/>
<path style="fill:#6d7581; stroke:none;" d="M539 144L539 145L542 145L539 144M547 144L548 145L547 144M554 144L555 145L554 144M563 144L564 145L563 144z"/>
<path style="fill:#2f3849; stroke:none;" d="M563 172L571 172C571 167.382 569.71 146.928 579.867 152.072C585.99 155.172 584 166.441 584 172L591 172C591 157.374 592.303 137.627 572 148C570.141 144.97 564.889 141.856 563.318 147.148C561.182 154.34 563 164.502 563 172z"/>
<path style="fill:#6d7581; stroke:none;" d="M570 144L572 148L580 145L580 144L573 147L570 144z"/>
<path style="fill:#7d9cca; stroke:none;" d="M576 144L577 145L576 144z"/>
<path style="fill:#6d7581; stroke:none;" d="M584.667 144.333L585.333 144.667L584.667 144.333z"/>
<path style="fill:#7d9cca; stroke:none;" d="M586 144L587 145L586 144z"/>
<path style="fill:#b5cbe9; stroke:none;" d="M177 145L178 146L177 145z"/>
<path style="fill:#6d7581; stroke:none;" d="M187 145C187 152.55 190.694 170.454 181 172L181 173C191.024 172.445 190.134 152.468 187 145M204 145C204.517 147.458 205.583 148.523 207 146L204 145M208 145L209 146L208 145z"/>
<path style="fill:#7d9cca; stroke:none;" d="M234 145L231 149L234 145z"/>
<path style="fill:#6d7581; stroke:none;" d="M235.667 145.333L236.333 145.667L235.667 145.333z"/>
<path style="fill:#7d9cca; stroke:none;" d="M248 145L249 146L248 145z"/>
<path style="fill:#6d7581; stroke:none;" d="M285.333 145.667L285.667 146.333L285.333 145.667M298.333 145.667L298.667 146.333L298.333 145.667z"/>
<path style="fill:#7d9cca; stroke:none;" d="M314 145L315 146L314 145M332 145L333 146L332 145M362 145L363 146L362 145z"/>
<path style="fill:#b5cbe9; stroke:none;" d="M378 145L378 172L379 172L378 145z"/>
<path style="fill:#7d9cca; stroke:none;" d="M389.333 145.667L389.667 146.333L389.333 145.667z"/>
<path style="fill:#6d7581; stroke:none;" d="M392.667 145.333L393.333 145.667L392.667 145.333M398.333 145.667L398.667 146.333L398.333 145.667M419 145L420 146L419 145z"/>
<path style="fill:#7d9cca; stroke:none;" d="M432 145L433 146L432 145M455 145L456 146L455 145M472 145L473 146L472 145M503 145L504 146L503 145z"/>
<path style="fill:#6d7581; stroke:none;" d="M543 145L544 146L543 145M546 145L544 146L544 147L546 145M555 145L554 174L555 174C556.483 166.011 558.184 152.587 555 145z"/>
<path style="fill:#7d9cca; stroke:none;" d="M572 145L573 146L572 145M574 145L575 146L574 145z"/>
<path style="fill:#6d7581; stroke:none;" d="M587 145L590 150L591 150L587 145z"/>
<path style="fill:#7d9cca; stroke:none;" d="M588 145L589 146L588 145M205 146L206 147L205 146z"/>
<path style="fill:#b5cbe9; stroke:none;" d="M222 146L224 150L225 150L222 146z"/>
<path style="fill:#6d7581; stroke:none;" d="M234 146L235 147L234 146M277 146L280 154L281 154L277 146z"/>
<path style="fill:#b5cbe9; stroke:none;" d="M287 146L288 151L289 151L287 146M296 146L295 151L296 151L296 146z"/>
<path style="fill:#7d9cca; stroke:none;" d="M313 146L314 147L313 146z"/>
<path style="fill:#b5cbe9; stroke:none;" d="M334 146L334 147L336 149L337 149L334 146M362 146L362 157L363 157L362 146z"/>
<path style="fill:#7d9cca; stroke:none;" d="M416 146L415 148L416 146z"/>
<path style="fill:#6d7581; stroke:none;" d="M417 146L418 147L417 146z"/>
<path style="fill:#7d9cca; stroke:none;" d="M484 146L485 147L484 146z"/>
<path style="fill:#6d7581; stroke:none;" d="M504 146L504 149L505 149L504 146z"/>
<path style="fill:#7d9cca; stroke:none;" d="M505 146L504 150L505 150L505 146M529 146L530 147L529 146M573 146L574 147L573 146M589 146L590 147L589 146z"/>
<path style="fill:#6d7581; stroke:none;" d="M233 147L234 148L233 147z"/>
<path style="fill:#7d9cca; stroke:none;" d="M277.333 147.667L277.667 148.333L277.333 147.667z"/>
<path style="fill:#6d7581; stroke:none;" d="M286.333 147.667L286.667 148.333L286.333 147.667M297.333 147.667L297.667 148.333L297.333 147.667z"/>
<path style="fill:#7d9cca; stroke:none;" d="M306 147L307 148L306 147M335 147L336 148L335 147M398.333 147.667L398.667 148.333L398.333 147.667z"/>
<path style="fill:#6d7581; stroke:none;" d="M416 147L417 148L416 147M474 147L475 148L474 147z"/>
<path style="fill:#7d9cca; stroke:none;" d="M528 147L529 148L528 147M590 147L591 148L590 147M223 148L224 149L223 148z"/>
<path style="fill:#6d7581; stroke:none;" d="M232 148L233 149L232 148z"/>
<path style="fill:#b5cbe9; stroke:none;" d="M306 148L304 154L305 154L306 148z"/>
<path style="fill:#6d7581; stroke:none;" d="M415 148L414 151L415 148M475 148L477 151L475 148z"/>
<path style="fill:#7d9cca; stroke:none;" d="M645 151L648 148L645 151M747 148L747 151L750 150L750 149L747 148z"/>
<path style="fill:#b5cbe9; stroke:none;" d="M177 149L177 171L178 171L177 149z"/>
<path style="fill:#6d7581; stroke:none;" d="M223 149C223.96 156.598 227.72 171.182 217 172L216 154L215 154C215.829 158.466 214.257 167.923 217.028 171.396C219.121 174.019 223.761 172.776 224.682 169.772C226.338 164.37 225.877 153.802 223 149M231 149L230 153L231 153L231 149z"/>
<path style="fill:#b5cbe9; stroke:none;" d="M277 149L278 150L277 149z"/>
<path style="fill:#7d9cca; stroke:none;" d="M287 149L288 150L287 149M296 149L297 150L296 149M305 149L306 150L305 149M310 149L311 150L310 149z"/>
<path style="fill:#b5cbe9; stroke:none;" d="M337 149L338 152L339 152L337 149z"/>
<path style="fill:#6d7581; stroke:none;" d="M398 149C387.393 155.245 388 160.2 388 172L389 172L390.065 156.065L398 149z"/>
<path style="fill:#7d9cca; stroke:none;" d="M414 149L415 150L414 149M451 149L452 150L451 149z"/>
<path style="fill:#6d7581; stroke:none;" d="M462.059 149.762C454.54 152.562 462.673 157.985 467.663 155.397C472.366 152.957 465.453 148.498 462.059 149.762z"/>
<path style="fill:#7d9cca; stroke:none;" d="M476 149L477 150L476 149M482.333 149.667L482.667 150.333L482.333 149.667z"/>
<path style="fill:#6d7581; stroke:none;" d="M498 156L498 155L491 153L491 151L504 151C501.016 150.165 496.168 148.467 493.167 149.643C487.042 152.043 495.615 155.62 498 156z"/>
<path style="fill:#b5cbe9; stroke:none;" d="M505 149L506 150L505 149z"/>
<path style="fill:#7d9cca; stroke:none;" d="M527 149L528 150L527 149M591.333 149.667L591.667 150.333L591.333 149.667z"/>
<path style="fill:#b5cbe9; stroke:none;" d="M170 150L170 151C172.619 153.784 173.369 155.818 171 159L171 160C175.434 157.125 174.065 152.493 170 150z"/>
<path style="fill:#7d9cca; stroke:none;" d="M224.333 150.667L224.667 151.333L224.333 150.667M230 150L231 151L230 150z"/>
<path style="fill:#6d7581; stroke:none;" d="M238 156L239 156L247 151C242.472 149.254 239.522 151.769 238 156z"/>
<path style="fill:#7d9cca; stroke:none;" d="M278 150L279 151L278 150z"/>
<path style="fill:#6d7581; stroke:none;" d="M287 150L289 157L290 157L287 150M296 150L294 158L295 158L296 150M304 150L302 156L303 156L304 150M318 152L318 153L326 151L318 152z"/>
<path style="fill:#7d9cca; stroke:none;" d="M337 150L338 151L337 150M398 150L399 151L398 150z"/>
<path style="fill:#6d7581; stroke:none;" d="M422 154C426.829 151.361 429.171 151.36 434 154C430.743 148.84 425.59 149.69 422 154z"/>
<path style="fill:#7d9cca; stroke:none;" d="M462 150L462 151L467 151L462 150M492 150L492 151L497 151L492 150z"/>
<path style="fill:#b5cbe9; stroke:none;" d="M504 150L503 153L504 150z"/>
<path style="fill:#6d7581; stroke:none;" d="M527 150L526 155L527 155L527 150M534 156L535 156C537.625 151.002 541.104 151.26 546 153C541.492 148.78 535.796 149.951 534 156z"/>
<path style="fill:#7d9cca; stroke:none;" d="M157 151L157 152L171 152L157 151z"/>
<path style="fill:#6d7581; stroke:none;" d="M208 151L208 152L215 153L208 151z"/>
<path style="fill:#b5cbe9; stroke:none;" d="M225 151L224 173C227.902 169.59 226.925 155.587 225 151z"/>
<path style="fill:#7d9cca; stroke:none;" d="M242 151L243 152L242 151z"/>
<path style="fill:#b5cbe9; stroke:none;" d="M239 157L240 157C242.744 152.348 245.468 152.83 250 155C245.906 150.101 241.161 150.992 239 157z"/>
<path style="fill:#7d9cca; stroke:none;" d="M247 151L250 154L247 151z"/>
<path style="fill:#6d7581; stroke:none;" d="M248 151L249 152L248 151z"/>
<path style="fill:#b5cbe9; stroke:none;" d="M278 151L279 155L280 155L278 151z"/>
<path style="fill:#7d9cca; stroke:none;" d="M288 151L289 152L288 151M295.333 151.667L295.667 152.333L295.333 151.667M321 151L322 152L321 151z"/>
<path style="fill:#b5cbe9; stroke:none;" d="M319 153L319 154C327.232 151.448 328.986 157.293 326 164C332.57 157.907 327.405 149.158 319 153z"/>
<path style="fill:#7d9cca; stroke:none;" d="M325 151L325 152L329 154L325 151z"/>
<path style="fill:#6d7581; stroke:none;" d="M327 151L328 152L327 151z"/>
<path style="fill:#7d9cca; stroke:none;" d="M397 151L398 152L397 151M413 151L414 152L413 151M425 151L422 155L425 151z"/>
<path style="fill:#b5cbe9; stroke:none;" d="M425 152L425 153C431.381 152.184 433.231 156.247 432 162C436.322 156.265 431.587 150.409 425 152z"/>
<path style="fill:#7d9cca; stroke:none;" d="M430 151L431 152L430 151M450 151L451 152L450 151M460 151L459 153L460 151z"/>
<path style="fill:#b5cbe9; stroke:none;" d="M461 151L459 154L469 154L466 151L468 154L460 154L461 151z"/>
<path style="fill:#f1f5f8; stroke:none;" d="M460 154L468 154C465.074 151.057 462.926 151.057 460 154z"/>
<path style="fill:#7d9cca; stroke:none;" d="M477 151L478 152L477 151z"/>
<path style="fill:#b5cbe9; stroke:none;" d="M481 151L481 154L482 154L481 151z"/>
<path style="fill:#6d7581; stroke:none;" d="M482 151L482 154L483 154L482 151z"/>
<path style="fill:#b5cbe9; stroke:none;" d="M491 151L495 154L495 153L491 151M497 151L497 152L501 153L501 152L497 151z"/>
<path style="fill:#7d9cca; stroke:none;" d="M499 151L500 152L499 151M503 151L504 152L503 151M526 151L527 152L526 151z"/>
<path style="fill:#b5cbe9; stroke:none;" d="M536 154C551.347 149.233 538.377 170.219 536 155C533.655 161.062 541.498 166.062 544.957 159.852C548.475 153.537 540.425 149.537 536 154z"/>
<path style="fill:#7d9cca; stroke:none;" d="M542 151L543 152L542 151z"/>
<path style="fill:#6d7581; stroke:none;" d="M571 172L572 172C572 163.953 570.543 148.868 583 154C571.336 142.1 571 165.793 571 172M591 151L591 172L592 172L591 151z"/>
<path style="fill:#7d9cca; stroke:none;" d="M172 152L173 153L172 152z"/>
<path style="fill:#6d7581; stroke:none;" d="M206 152L205 154L206 152z"/>
<path style="fill:#7d9cca; stroke:none;" d="M205 155L209 153L205 155z"/>
<path style="fill:#b5cbe9; stroke:none;" d="M209 152L209 153L212 153L209 152z"/>
<path style="fill:#7d9cca; stroke:none;" d="M212 152L213 153L212 152M229.333 152.667L229.667 153.333L229.333 152.667M240 152L241 153L240 152z"/>
<path style="fill:#f1f5f8; stroke:none;" d="M243.213 152.851C237.378 154.742 239.602 165.373 245.896 163.338C252.044 161.35 249.717 150.743 243.213 152.851z"/>
<path style="fill:#6d7581; stroke:none;" d="M249 152L250 153L249 152z"/>
<path style="fill:#7d9cca; stroke:none;" d="M279 152L280 153L279 152z"/>
<path style="fill:#b5cbe9; stroke:none;" d="M289 152L292 160L295 153L294 153L292 158L289 152z"/>
<path style="fill:#7d9cca; stroke:none;" d="M304 152L305 153L304 152M308.333 152.667L308.667 153.333L308.333 152.667M319 152L320 153L319 152z"/>
<path style="fill:#f1f5f8; stroke:none;" d="M322.143 152.851C316.82 154.59 318.794 165.355 324.871 163.338C330.69 161.407 328.42 150.801 322.143 152.851z"/>
<path style="fill:#6d7581; stroke:none;" d="M328 152L329 153L328 152z"/>
<path style="fill:#7d9cca; stroke:none;" d="M338 152L339 153L338 152M393 152L394 153L393 152z"/>
<path style="fill:#6d7581; stroke:none;" d="M413 152L413 155L414 155L413 152z"/>
<path style="fill:#f1f5f8; stroke:none;" d="M426.225 152.786C420.578 155.03 423.72 165.401 429.772 163.199C435.479 161.123 432.591 150.256 426.225 152.786z"/>
<path style="fill:#6d7581; stroke:none;" d="M450 152L450 164L451 164L450 152z"/>
<path style="fill:#7d9cca; stroke:none;" d="M468 152L469 153L468 152z"/>
<path style="fill:#6d7581; stroke:none;" d="M477 152L478 158L458 160C460.009 164.902 462.906 165.877 468 166L468 165L459 160C465.452 160 482.172 163.047 477 152z"/>
<path style="fill:#7d9cca; stroke:none;" d="M491 152L492 153L491 152M501.667 152.333L502.333 152.667L501.667 152.333M536 152L537 153L536 152z"/>
<path style="fill:#f1f5f8; stroke:none;" d="M539.133 152.851C534.011 154.554 536.53 163.158 541.857 161.338C546.888 159.619 544.38 151.106 539.133 152.851z"/>
<path style="fill:#7d9cca; stroke:none;" d="M544 152L545 153L544 152M575 152L576 153L575 152z"/>
<path style="fill:#b5cbe9; stroke:none;" d="M576 152L576 153L582 155L576 152z"/>
<path style="fill:#7d9cca; stroke:none;" d="M580 152L581 153L580 152M592 152L590 172L590 173C594.842 169.861 594.078 156.952 592 152z"/>
<path style="fill:#b5cbe9; stroke:none;" d="M207 153L208 154L207 153M213 153L214 171L215 171L213 153z"/>
<path style="fill:#7d9cca; stroke:none;" d="M214 153L215 154L214 153z"/>
<path style="fill:#6d7581; stroke:none;" d="M250 153C251.381 160.821 248.242 165.331 240 164L240 165C247.824 166.792 255.384 160.891 250 153z"/>
<path style="fill:#b5cbe9; stroke:none;" d="M307 153L307 157L308 157L307 153z"/>
<path style="fill:#7d9cca; stroke:none;" d="M318 153L318 162L319 162L318 153z"/>
<path style="fill:#b5cbe9; stroke:none;" d="M339 153L339 163L340 163L339 153z"/>
<path style="fill:#7d9cca; stroke:none;" d="M391 153L390 155L391 153z"/>
<path style="fill:#b5cbe9; stroke:none;" d="M392 153L393 154L392 153z"/>
<path style="fill:#7d9cca; stroke:none;" d="M412 153L412 156L413 156L412 153M449.333 153.667L449.667 154.333L449.333 153.667M478 153L478 157L479 157L478 153M492 153L493 154L492 153M535.333 153.667L535.667 154.333L535.333 153.667M545.333 153.667L545.667 154.333L545.333 153.667z"/>
<path style="fill:#b5cbe9; stroke:none;" d="M574 153L573 156L574 153z"/>
<path style="fill:#7d9cca; stroke:none;" d="M581 153L582 154L581 153z"/>
<path style="fill:#b5cbe9; stroke:none;" d="M206 154L205 172L206 172L206 154z"/>
<path style="fill:#6d7581; stroke:none;" d="M229 154L229 162L230 162L229 154z"/>
<path style="fill:#7d9cca; stroke:none;" d="M239 154L240 155L239 154M280.333 154.667L280.667 155.333L280.333 154.667M289 154L290 155L289 154M303 154L304 155L303 154z"/>
<path style="fill:#6d7581; stroke:none;" d="M308 154L308 162L309 162L308 154M317 154L318 155L317 154M329 154L329 162L330 162L329 154z"/>
<path style="fill:#b5cbe9; stroke:none;" d="M391 154L392 155L391 154M423 154L424 155L423 154z"/>
<path style="fill:#7d9cca; stroke:none;" d="M433 154L434 155L433 154M459 154L460 155L459 154M468 154L469 155L468 154z"/>
<path style="fill:#b5cbe9; stroke:none;" d="M479 154L477 160L477 161C479.824 159.171 480.263 157.117 479 154z"/>
<path style="fill:#7d9cca; stroke:none;" d="M482 154L484 157L482 154M495.667 154.333L496.333 154.667L495.667 154.333z"/>
<path style="fill:#b5cbe9; stroke:none;" d="M497 154L497 155L506 160L497 154z"/>
<path style="fill:#6d7581; stroke:none;" d="M546 154L546 160L547 160L546 154z"/>
<path style="fill:#7d9cca; stroke:none;" d="M582 154L582 157L583 157L582 154M250 155L250 161L251 161L250 155z"/>
<path style="fill:#6d7581; stroke:none;" d="M281 155L283 161L284 161L281 155z"/>
<path style="fill:#7d9cca; stroke:none;" d="M294 155L295 156L294 155z"/>
<path style="fill:#b5cbe9; stroke:none;" d="M303 155L302 160L303 160L303 155M318 155L318 161L319 161L318 155z"/>
<path style="fill:#7d9cca; stroke:none;" d="M329.333 155.667L329.667 156.333L329.333 155.667z"/>
<path style="fill:#b5cbe9; stroke:none;" d="M390 155L389 173L390 173L390 155z"/>
<path style="fill:#6d7581; stroke:none;" d="M421 155L421 161L422 161L421 155z"/>
<path style="fill:#b5cbe9; stroke:none;" d="M422 155C422.118 158.971 422.508 161.796 426 164L422 155z"/>
<path style="fill:#6d7581; stroke:none;" d="M434 155L434 161L435 161L434 155M483 155L484 156L483 155z"/>
<path style="fill:#7d9cca; stroke:none;" d="M498 155L499 156L498 155M525 155L525 158L526 158L525 155M215 156L216 173L217 173L215 156M238 156L238 160L239 160L238 156z"/>
<path style="fill:#b5cbe9; stroke:none;" d="M280 156L282 162L283 162L280 156z"/>
<path style="fill:#7d9cca; stroke:none;" d="M302.333 156.667L302.667 157.333L302.333 156.667M389.333 156.667L389.667 157.333L389.333 156.667z"/>
<path style="fill:#b5cbe9; stroke:none;" d="M411 156L411 160L412 160L411 156z"/>
<path style="fill:#6d7581; stroke:none;" d="M412 156L412 160L413 160L412 156z"/>
<path style="fill:#b5cbe9; stroke:none;" d="M482 156L483 157L482 156z"/>
<path style="fill:#6d7581; stroke:none;" d="M499 156L499 157L503 158L503 157L499 156z"/>
<path style="fill:#7d9cca; stroke:none;" d="M501 156L502 157L501 156M534 156L534 159L535 159L534 156M572 156L572 171L573 171L572 156z"/>
<path style="fill:#6d7581; stroke:none;" d="M583 156L583 172L584 172L583 156z"/>
<path style="fill:#7d9cca; stroke:none;" d="M172.333 157.667L172.667 158.333L172.333 157.667M228.333 157.667L228.667 158.333L228.333 157.667M281 157L282 158L281 157M290 157L291 158L290 157z"/>
<path style="fill:#6d7581; stroke:none;" d="M301 157L300 161L301 161L301 157z"/>
<path style="fill:#7d9cca; stroke:none;" d="M307.333 157.667L307.667 158.333L307.333 157.667z"/>
<path style="fill:#6d7581; stroke:none;" d="M316.333 157.667L316.667 158.333L316.333 157.667z"/>
<path style="fill:#7d9cca; stroke:none;" d="M339.333 157.667L339.667 158.333L339.333 157.667M362 157L362 161L363 161L362 157z"/>
<path style="fill:#b5cbe9; stroke:none;" d="M483 157L486 160L483 157z"/>
<path style="fill:#6d7581; stroke:none;" d="M484 157L484 158L487 159L484 157z"/>
<path style="fill:#b5cbe9; stroke:none;" d="M582 157L582 173L583 173L582 157z"/>
<path style="fill:#6d7581; stroke:none;" d="M290 158C291.315 160.349 292.199 161.364 294 159L293 159L292 161L290 158z"/>
<path style="fill:#7d9cca; stroke:none;" d="M293 158L294 159L293 158M478.333 158.667L478.667 159.333L478.333 158.667M485 158L486 159L485 158z"/>
<path style="fill:#6d7581; stroke:none;" d="M503 158L504 159L503 158z"/>
<path style="fill:#b5cbe9; stroke:none;" d="M525 158L526 164L527 164L525 158z"/>
<path style="fill:#6d7581; stroke:none;" d="M526 158C526.84 163.289 529.117 166.697 534 169L534 168L526 158z"/>
<path style="fill:#7d9cca; stroke:none;" d="M794.907 159.432C791.652 160.24 788.911 163.771 786.714 166.09C783.905 169.055 778.643 172.816 777.752 177C776.427 183.213 789.119 192.119 793 196C796.167 199.167 802.835 208.708 808 207.539C811.154 206.824 813.83 203.165 816 201C818.774 198.233 824.585 194.184 825.079 190C825.765 184.184 813.873 175.96 810.289 172.04C807.495 168.984 799.557 158.279 794.907 159.432z"/>
<path style="fill:#6d7581; stroke:none;" d="M155 159C155 165.432 155.878 171.399 148 172L148 173C155.992 172.74 157.91 165.936 155 159z"/>
<path style="fill:#7d9cca; stroke:none;" d="M156 159L156 160L171 160L156 159z"/>
<path style="fill:#b5cbe9; stroke:none;" d="M228 159C228.272 164.23 229.853 167.743 234 171L228 159M239.333 159.667L239.667 160.333L239.333 159.667z"/>
<path style="fill:#7d9cca; stroke:none;" d="M282 159L283 160L282 159M291 159L292 160L291 159M301 159L300 163L301 163L301 159z"/>
<path style="fill:#b5cbe9; stroke:none;" d="M307 159L307 163L308 163L307 159z"/>
<path style="fill:#7d9cca; stroke:none;" d="M329.333 159.667L329.667 160.333L329.333 159.667M486 159L486 160L490 161L490 160L486 159z"/>
<path style="fill:#6d7581; stroke:none;" d="M488.667 159.333L489.333 159.667L488.667 159.333M504 159C504.809 164.009 504.037 166.798 500 170L500 171C504.972 168.547 507.327 163.9 504 159M534 159L536 162L534 159z"/>
<path style="fill:#b5cbe9; stroke:none;" d="M156 160L155 173C158.156 170.242 157.53 163.647 156 160z"/>
<path style="fill:#6d7581; stroke:none;" d="M238 160L240 163L238 160z"/>
<path style="fill:#b5cbe9; stroke:none;" d="M249 160L247 164L249 160z"/>
<path style="fill:#7d9cca; stroke:none;" d="M292 160L293 161L292 160M353.333 160.667L353.667 161.333L353.333 160.667z"/>
<path style="fill:#b5cbe9; stroke:none;" d="M361 160L360 163L361 160z"/>
<path style="fill:#7d9cca; stroke:none;" d="M412 160L412 163L413 163L412 160M459 160L459 162L461 160L459 160z"/>
<path style="fill:#b5cbe9; stroke:none;" d="M461 160L463 164L463 163L463 161L461 160z"/>
<path style="fill:#7d9cca; stroke:none;" d="M463 160L463 161L477 161L463 160z"/>
<path style="fill:#b5cbe9; stroke:none;" d="M487 160L488 161L487 160z"/>
<path style="fill:#6d7581; stroke:none;" d="M490 160L490 161L493 161L490 160z"/>
<path style="fill:#7d9cca; stroke:none;" d="M505 160L506 161L505 160M535 160L536 161L535 160M545 160L543 163L545 160M239 161L240 162L239 161M283.333 161.667L283.667 162.333L283.333 161.667z"/>
<path style="fill:#b5cbe9; stroke:none;" d="M301.333 161.667L301.667 162.333L301.333 161.667z"/>
<path style="fill:#6d7581; stroke:none;" d="M317 161L318 162L317 161M413 161L413 164L414 164L413 161z"/>
<path style="fill:#7d9cca; stroke:none;" d="M422 161L424 163L422 161M433 161L432 163L433 161z"/>
<path style="fill:#f1f5f8; stroke:none;" d="M461 161C463.663 164.765 467.242 163.798 471 162L461 161z"/>
<path style="fill:#b5cbe9; stroke:none;" d="M468 163L468 164L476 165C473.364 162.118 471.71 161.834 468 163M489 161L489 162L495 165L489 164L489 165L496 165L496 163L489 161z"/>
<path style="fill:#7d9cca; stroke:none;" d="M492.667 161.333L493.333 161.667L492.667 161.333z"/>
<path style="fill:#6d7581; stroke:none;" d="M494 161L494 162L496 166C498.303 163.72 496.399 162.306 494 161z"/>
<path style="fill:#b5cbe9; stroke:none;" d="M506 161L506 166L507 166L506 161z"/>
<path style="fill:#7d9cca; stroke:none;" d="M526.333 161.667L526.667 162.333L526.333 161.667z"/>
<path style="fill:#6d7581; stroke:none;" d="M545 161L546 162L545 161z"/>
<path style="fill:#b5cbe9; stroke:none;" d="M758 161C759.345 173.939 750.797 176.812 740 179L740 180C749.89 184.166 765.725 171.209 758 161z"/>
<path style="fill:#7d9cca; stroke:none;" d="M229 162L230 163L229 162z"/>
<path style="fill:#b5cbe9; stroke:none;" d="M240 162L242 164L240 162z"/>
<path style="fill:#7d9cca; stroke:none;" d="M249 162L250 163L249 162z"/>
<path style="fill:#6d7581; stroke:none;" d="M284 162L285 166L286 166L284 162M299 162L297 169L298 169L299 162z"/>
<path style="fill:#7d9cca; stroke:none;" d="M308.333 162.667L308.667 163.333L308.333 162.667z"/>
<path style="fill:#6d7581; stroke:none;" d="M318 162C320.671 166.571 324.624 166.093 329 164L329 163C324.535 164.587 322.008 164.629 318 162z"/>
<path style="fill:#b5cbe9; stroke:none;" d="M319 162L321 164L319 162z"/>
<path style="fill:#7d9cca; stroke:none;" d="M328 162L329 163L328 162z"/>
<path style="fill:#b5cbe9; stroke:none;" d="M354 162L354 163L360 164L360 163L354 162z"/>
<path style="fill:#7d9cca; stroke:none;" d="M361 162L362 163L361 162z"/>
<path style="fill:#6d7581; stroke:none;" d="M422 162L423 163L422 162M433 162L434 163L433 162z"/>
<path style="fill:#7d9cca; stroke:none;" d="M449 162L450 163L449 162z"/>
<path style="fill:#b5cbe9; stroke:none;" d="M482 163L482 164L487 164L482 163z"/>
<path style="fill:#7d9cca; stroke:none;" d="M495 162L496 163L495 162z"/>
<path style="fill:#6d7581; stroke:none;" d="M536 162L536 163L540 164L540 163L536 162z"/>
<path style="fill:#7d9cca; stroke:none;" d="M537 162L538 163L537 162z"/>
<path style="fill:#6d7581; stroke:none;" d="M544 162L545 163L544 162M230 163C231.722 168.05 234.742 170.938 240 172L240 171L230 163z"/>
<path style="fill:#7d9cca; stroke:none;" d="M240 163L241 164L240 163M248 163L249 164L248 163z"/>
<path style="fill:#b5cbe9; stroke:none;" d="M283 163L284 167L285 167L283 163M300 163L299 167L300 167L300 163z"/>
<path style="fill:#6d7581; stroke:none;" d="M309 163L312 169L313 169L309 163z"/>
<path style="fill:#7d9cca; stroke:none;" d="M319 163L320 164L319 163M327 163L328 164L327 163M338 163L339 164L338 163M355 163L356 164L355 163z"/>
<path style="fill:#b5cbe9; stroke:none;" d="M412 163C413.701 168.283 416.717 171.299 422 173L422 172L412 163z"/>
<path style="fill:#6d7581; stroke:none;" d="M423 163L424 164L423 163z"/>
<path style="fill:#b5cbe9; stroke:none;" d="M430.667 163.333L431.333 163.667L430.667 163.333z"/>
<path style="fill:#6d7581; stroke:none;" d="M432 163L433 164L432 163z"/>
<path style="fill:#7d9cca; stroke:none;" d="M470 163L471 164L470 163z"/>
<path style="fill:#6d7581; stroke:none;" d="M471 163L471 164C473.475 166.464 473.475 167.536 471 170L471 171C475.66 168.62 475.66 165.38 471 163z"/>
<path style="fill:#7d9cca; stroke:none;" d="M473 163L474 164L473 163M482 166L483 166L486 164L482 166M496.333 163.667L496.667 164.333L496.333 163.667M540 163L541 164L540 163z"/>
<path style="fill:#6d7581; stroke:none;" d="M541.667 163.333L542.333 163.667L541.667 163.333z"/>
<path style="fill:#7d9cca; stroke:none;" d="M242.667 164.333L243.333 164.667L242.667 164.333z"/>
<path style="fill:#b5cbe9; stroke:none;" d="M244.667 164.333L245.333 164.667L244.667 164.333z"/>
<path style="fill:#7d9cca; stroke:none;" d="M246 164L247 165L246 164M284 164L285 165L284 164M299 164L300 165L299 164z"/>
<path style="fill:#b5cbe9; stroke:none;" d="M308 164L311 168L308 164z"/>
<path style="fill:#7d9cca; stroke:none;" d="M321.667 164.333L322.333 164.667L321.667 164.333z"/>
<path style="fill:#b5cbe9; stroke:none;" d="M323.667 164.333L324.333 164.667L323.667 164.333z"/>
<path style="fill:#7d9cca; stroke:none;" d="M325 164L326 165L325 164z"/>
<path style="fill:#b5cbe9; stroke:none;" d="M338 164L328 172L328 173C332.512 172.127 338.727 169.392 338 164z"/>
<path style="fill:#7d9cca; stroke:none;" d="M413 164L414 165L413 164z"/>
<path style="fill:#6d7581; stroke:none;" d="M424 164L425 165L424 164z"/>
<path style="fill:#7d9cca; stroke:none;" d="M425.667 164.333L426.333 164.667L425.667 164.333z"/>
<path style="fill:#b5cbe9; stroke:none;" d="M427.667 164.333L428.333 164.667L427.667 164.333z"/>
<path style="fill:#7d9cca; stroke:none;" d="M429.667 164.333L430.333 164.667L429.667 164.333z"/>
<path style="fill:#6d7581; stroke:none;" d="M431 164L432 165L431 164z"/>
<path style="fill:#7d9cca; stroke:none;" d="M450 164L452 167L450 164M462.667 164.333L463.333 164.667L462.667 164.333z"/>
<path style="fill:#b5cbe9; stroke:none;" d="M464.667 164.333L465.333 164.667L464.667 164.333z"/>
<path style="fill:#7d9cca; stroke:none;" d="M466 164L466 165L469 165L466 164z"/>
<path style="fill:#6d7581; stroke:none;" d="M469.667 164.333L470.333 164.667L469.667 164.333z"/>
<path style="fill:#7d9cca; stroke:none;" d="M474 164L475 165L474 164z"/>
<path style="fill:#6d7581; stroke:none;" d="M483 164L483 165L490 166L483 164z"/>
<path style="fill:#7d9cca; stroke:none;" d="M487.667 164.333L488.333 164.667L487.667 164.333M527 164L532 169L527 164z"/>
<path style="fill:#b5cbe9; stroke:none;" d="M794 165.176C792.041 165.851 790.451 167.626 789.001 169.019C778.234 179.37 787.6 184.445 795.961 192.985C798.463 195.541 803.855 203.712 808.093 202.553C810.443 201.911 812.334 199.632 813.999 197.995C824.599 187.574 815.55 182.549 807 174C804.086 171.086 798.846 163.507 794 165.176z"/>
<path style="fill:#7d9cca; stroke:none;" d="M230 165L231 166L230 165M309 165L310 166L309 165M337 165L338 166L337 165z"/>
<path style="fill:#b5cbe9; stroke:none;" d="M343 165L350 173L350 172L343 165z"/>
<path style="fill:#6d7581; stroke:none;" d="M344 165L346 168L344 165M414 165L415 168L416 168L414 165M426 165L426 166L431 166L426 165M451 165L452 166L451 165z"/>
<path style="fill:#7d9cca; stroke:none;" d="M475 165L476 166L475 165z"/>
<path style="fill:#b5cbe9; stroke:none;" d="M481 165L483 171L481 165z"/>
<path style="fill:#7d9cca; stroke:none;" d="M490.667 165.333L491.333 165.667L490.667 165.333M495 165L496 166L495 165z"/>
<path style="fill:#b5cbe9; stroke:none;" d="M527 165L528 166L527 165z"/>
<path style="fill:#7d9cca; stroke:none;" d="M285 166L286 170L287 170L285 166M310 166L311 167L310 166M414 166L415 167L414 166z"/>
<path style="fill:#b5cbe9; stroke:none;" d="M450 166L451 167L450 166z"/>
<path style="fill:#6d7581; stroke:none;" d="M452 166L454 169L452 166z"/>
<path style="fill:#b5cbe9; stroke:none;" d="M476 166L474 171L478 166L476 166z"/>
<path style="fill:#6d7581; stroke:none;" d="M482 166C483.387 170.611 486.436 171.586 491 172L491 171L482 166M491 166L491 167L495 167L491 166z"/>
<path style="fill:#7d9cca; stroke:none;" d="M505 166L506 167L505 166z"/>
<path style="fill:#b5cbe9; stroke:none;" d="M528 166L529 167L528 166z"/>
<path style="fill:#7d9cca; stroke:none;" d="M231 167L232 168L231 167z"/>
<path style="fill:#6d7581; stroke:none;" d="M286 167L287 168L286 167z"/>
<path style="fill:#7d9cca; stroke:none;" d="M298 167L299 168L298 167M336 167L337 168L336 167M344 167L345 168L344 167z"/>
<path style="fill:#b5cbe9; stroke:none;" d="M451 167L452 168L451 167z"/>
<path style="fill:#7d9cca; stroke:none;" d="M481.333 167.667L481.667 168.333L481.333 167.667z"/>
<path style="fill:#b5cbe9; stroke:none;" d="M505 167L498 172L498 173C501.492 172.293 505.087 170.977 505 167M529 167L530 168L529 167z"/>
<path style="fill:#6d7581; stroke:none;" d="M542 168L542 169L546 168L546 172L547 172L548 168L542 168z"/>
<path style="fill:#7d9cca; stroke:none;" d="M232 168L233 169L232 168z"/>
<path style="fill:#b5cbe9; stroke:none;" d="M285.333 168.667L285.667 169.333L285.333 168.667M298 168L297 172L298 172L298 168M311 168L319 173L319 172L311 168z"/>
<path style="fill:#7d9cca; stroke:none;" d="M335 168L336 169L335 168M345 168L346 169L345 168z"/>
<path style="fill:#6d7581; stroke:none;" d="M359 170L359 171L363 172L364 172L363 168L359 170M416 168L417 169L416 168z"/>
<path style="fill:#b5cbe9; stroke:none;" d="M452 168L460 173L460 172L452 168z"/>
<path style="fill:#7d9cca; stroke:none;" d="M475 168L476 169L475 168M504 168L505 169L504 168z"/>
<path style="fill:#b5cbe9; stroke:none;" d="M530 168L531 169L530 168M543 169L543 174L546 168L543 169z"/>
<path style="fill:#7d9cca; stroke:none;" d="M233 169L234 170L233 169z"/>
<path style="fill:#6d7581; stroke:none;" d="M244 171L244 172L251 172C252.682 167.545 246.124 170.348 244 171M287 169L287 173L288 173L287 169z"/>
<path style="fill:#7d9cca; stroke:none;" d="M297 169L298 170L297 169M313 169L315 171L313 169z"/>
<path style="fill:#6d7581; stroke:none;" d="M314 169L315 170L314 169M332 169L330 170L330 171L332 169z"/>
<path style="fill:#7d9cca; stroke:none;" d="M333 169L334 170L333 169M346 169L347 170L346 169z"/>
<path style="fill:#6d7581; stroke:none;" d="M347 169L352 172L352 171L347 169M417 169L417 170L420 171L417 169z"/>
<path style="fill:#7d9cca; stroke:none;" d="M454 169L456 171L454 169z"/>
<path style="fill:#6d7581; stroke:none;" d="M455 169L456 170L455 169z"/>
<path style="fill:#7d9cca; stroke:none;" d="M474 169L475 170L474 169M482 169L483 170L482 169M503 169L504 170L503 169z"/>
<path style="fill:#b5cbe9; stroke:none;" d="M531.667 169.333L532.333 169.667L531.667 169.333z"/>
<path style="fill:#7d9cca; stroke:none;" d="M533.667 169.333L534.333 169.667L533.667 169.333z"/>
<path style="fill:#6d7581; stroke:none;" d="M535 169L535 170L541 170L535 169z"/>
<path style="fill:#7d9cca; stroke:none;" d="M541.667 169.333L542.333 169.667L541.667 169.333M234 170L235 171L234 170M249.667 170.333L250.333 170.667L249.667 170.333z"/>
<path style="fill:#b5cbe9; stroke:none;" d="M286 170L285 174L286 174L286 170z"/>
<path style="fill:#6d7581; stroke:none;" d="M296 170L295 174L296 174L296 170M315.667 170.333L316.333 170.667L315.667 170.333z"/>
<path style="fill:#7d9cca; stroke:none;" d="M332 170L333 171L332 170M360 170L361 171L360 170z"/>
<path style="fill:#b5cbe9; stroke:none;" d="M361 170L362 173L363 173L361 170z"/>
<path style="fill:#7d9cca; stroke:none;" d="M362 170L363 171L362 170M418 170L419 171L418 170M432 170L432 171L436 173L432 170z"/>
<path style="fill:#6d7581; stroke:none;" d="M456.667 170.333L457.333 170.667L456.667 170.333z"/>
<path style="fill:#7d9cca; stroke:none;" d="M473 170L474 171L473 170M483 170L484 171L483 170M502 170L503 171L502 170z"/>
<path style="fill:#b5cbe9; stroke:none;" d="M534 170L534 171L538 171L534 170z"/>
<path style="fill:#7d9cca; stroke:none;" d="M538 170L539 171L538 170z"/>
<path style="fill:#b5cbe9; stroke:none;" d="M539 170L539 171L542 171L539 170z"/>
<path style="fill:#7d9cca; stroke:none;" d="M155 171L156 172L155 171M178 171L181 173L181 172L178 171M195 171L196 172L195 171z"/>
<path style="fill:#b5cbe9; stroke:none;" d="M235 171L235 172L239 173L239 172L235 171z"/>
<path style="fill:#7d9cca; stroke:none;" d="M236 171L237 172L236 171M247 171L248 172L247 171z"/>
<path style="fill:#b5cbe9; stroke:none;" d="M248 171L248 172L252 173L252 172L248 171z"/>
<path style="fill:#6d7581; stroke:none;" d="M259 171L260 172L259 171z"/>
<path style="fill:#7d9cca; stroke:none;" d="M316.667 171.333L317.333 171.667L316.667 171.333z"/>
<path style="fill:#6d7581; stroke:none;" d="M318 171L318 172L321 172L318 171M326 171L326 172L329 172L326 171z"/>
<path style="fill:#7d9cca; stroke:none;" d="M329.667 171.333L330.333 171.667L329.667 171.333M348 171L349 172L348 171z"/>
<path style="fill:#6d7581; stroke:none;" d="M356.667 171.333L357.333 171.667L356.667 171.333z"/>
<path style="fill:#7d9cca; stroke:none;" d="M358 171L359 172L358 171z"/>
<path style="fill:#b5cbe9; stroke:none;" d="M359.667 171.333L360.333 171.667L359.667 171.333z"/>
<path style="fill:#6d7581; stroke:none;" d="M371 171L372 172L371 171z"/>
<path style="fill:#7d9cca; stroke:none;" d="M420 171L421 172L420 171z"/>
<path style="fill:#6d7581; stroke:none;" d="M421 171L421 172L424 172L421 171z"/>
<path style="fill:#7d9cca; stroke:none;" d="M430 171L431 172L430 171z"/>
<path style="fill:#b5cbe9; stroke:none;" d="M431 171L431 172L434 172L431 171z"/>
<path style="fill:#7d9cca; stroke:none;" d="M443 171L444 172L443 171M457.667 171.333L458.333 171.667L457.667 171.333z"/>
<path style="fill:#6d7581; stroke:none;" d="M459 171L459 172L462 172L459 171M467 171L467 172L470 172L467 171z"/>
<path style="fill:#7d9cca; stroke:none;" d="M470 171L471 172L470 171z"/>
<path style="fill:#b5cbe9; stroke:none;" d="M469 172L469 173L473 172L469 172M484 171L484 172L489 173L489 172L484 171z"/>
<path style="fill:#7d9cca; stroke:none;" d="M486 171L487 172L486 171z"/>
<path style="fill:#6d7581; stroke:none;" d="M496 171L496 172L499 172L496 171z"/>
<path style="fill:#7d9cca; stroke:none;" d="M499.667 171.333L500.333 171.667L499.667 171.333M511 171L512 172L511 171M555.333 171.667L555.667 172.333L555.333 171.667z"/>
<path style="fill:#b5cbe9; stroke:none;" d="M572.333 171.667L572.667 172.333L572.333 171.667z"/>
<path style="fill:#7d9cca; stroke:none;" d="M147 172L148 173L147 172M154 172L155 173L154 172z"/>
<path style="fill:#b5cbe9; stroke:none;" d="M178 172L179 173L178 172z"/>
<path style="fill:#7d9cca; stroke:none;" d="M186.667 172.333L187.333 172.667L186.667 172.333M196 172L197 173L196 172M203 172L204 173L203 172z"/>
<path style="fill:#b5cbe9; stroke:none;" d="M204 172L205 173L204 172M215 172L216 173L215 172z"/>
<path style="fill:#7d9cca; stroke:none;" d="M223 172L224 173L223 172M239 172L239 173L246 173L239 172z"/>
<path style="fill:#b5cbe9; stroke:none;" d="M246.667 172.333L247.333 172.667L246.667 172.333z"/>
<path style="fill:#7d9cca; stroke:none;" d="M252 172L253 173L252 172z"/>
<path style="fill:#6d7581; stroke:none;" d="M253 172L253 173L258 173L253 172z"/>
<path style="fill:#b5cbe9; stroke:none;" d="M260 172L261 173L260 172z"/>
<path style="fill:#7d9cca; stroke:none;" d="M296 172L297 173L296 172M319 172L319 173L328 173L319 172M350 172L350 173L357 173L350 172z"/>
<path style="fill:#b5cbe9; stroke:none;" d="M357.667 172.333L358.333 172.667L357.667 172.333z"/>
<path style="fill:#7d9cca; stroke:none;" d="M363.667 172.333L364.333 172.667L363.667 172.333z"/>
<path style="fill:#6d7581; stroke:none;" d="M365 172L365 173L370 173L365 172z"/>
<path style="fill:#b5cbe9; stroke:none;" d="M379 172L380 173L379 172z"/>
<path style="fill:#7d9cca; stroke:none;" d="M387.667 172.333L388.333 172.667L387.667 172.333M422 172L422 173L429 173L422 172z"/>
<path style="fill:#b5cbe9; stroke:none;" d="M429.667 172.333L430.333 172.667L429.667 172.333M434 172L435 173L434 172z"/>
<path style="fill:#7d9cca; stroke:none;" d="M442 172L443 173L442 172M460 172L460 173L464 173L460 172z"/>
<path style="fill:#6d7581; stroke:none;" d="M464 172L465 173L464 172z"/>
<path style="fill:#7d9cca; stroke:none;" d="M465 172L465 173L469 173L465 172M489 172L489 173L493 173L489 172z"/>
<path style="fill:#6d7581; stroke:none;" d="M493 172L494 173L493 172z"/>
<path style="fill:#7d9cca; stroke:none;" d="M494 172L494 173L498 173L494 172M512 172L513 173L512 172M516 172L517 173L516 172z"/>
<path style="fill:#6d7581; stroke:none;" d="M517.667 172.333L518.333 172.667L517.667 172.333z"/>
<path style="fill:#7d9cca; stroke:none;" d="M519.667 172.333L520.333 172.667L519.667 172.333z"/>
<path style="fill:#b5cbe9; stroke:none;" d="M529 172L529 173L535 174L529 172z"/>
<path style="fill:#7d9cca; stroke:none;" d="M545 172L544 174L545 172z"/>
<path style="fill:#b5cbe9; stroke:none;" d="M562 172L563 173L562 172z"/>
<path style="fill:#6d7581; stroke:none;" d="M565 172L566 173L565 172z"/>
<path style="fill:#7d9cca; stroke:none;" d="M566 172L567 173L566 172z"/>
<path style="fill:#6d7581; stroke:none;" d="M567 172L567 173L570 173L567 172z"/>
<path style="fill:#7d9cca; stroke:none;" d="M570.667 172.333L571.333 172.667L570.667 172.333M583.667 172.333L584.333 172.667L583.667 172.333z"/>
<path style="fill:#6d7581; stroke:none;" d="M585 172L585 173L588 173L585 172z"/>
<path style="fill:#7d9cca; stroke:none;" d="M588 172L589 173L588 172z"/>
<path style="fill:#6d7581; stroke:none;" d="M589 172L590 173L589 172z"/>
<path style="fill:#b5cbe9; stroke:none;" d="M592 172L593 173L592 172M280 183L280 182L276 181L281 174C274.784 173.864 274.576 181 280 183z"/>
<path style="fill:#7d9cca; stroke:none;" d="M286 173L287 174L286 173z"/>
<path style="fill:#b5cbe9; stroke:none;" d="M296 173L294 178L296 173z"/>
<path style="fill:#7d9cca; stroke:none;" d="M529 173L530 174L529 173z"/>
<path style="fill:#6d7581; stroke:none;" d="M530 173L530 174L545 175L545 174L530 173z"/>
<path style="fill:#7d9cca; stroke:none;" d="M532 173L533 174L532 173z"/>
<path style="fill:#6d7581; stroke:none;" d="M545 173L546 174L545 173z"/>
<path style="fill:#b5cbe9; stroke:none;" d="M555.333 173.667L555.667 174.333L555.333 173.667z"/>
<path style="fill:#6d7581; stroke:none;" d="M279 174L280 175L279 174z"/>
<path style="fill:#7d9cca; stroke:none;" d="M280 174L280 175L283 175L280 174z"/>
<path style="fill:#b5cbe9; stroke:none;" d="M283 174L284 175L283 174z"/>
<path style="fill:#7d9cca; stroke:none;" d="M284 174L285 175L284 174z"/>
<path style="fill:#6d7581; stroke:none;" d="M285.667 174.333L286.333 174.667L285.667 174.333z"/>
<path style="fill:#7d9cca; stroke:none;" d="M295 174L296 175L295 174z"/>
<path style="fill:#b5cbe9; stroke:none;" d="M528 174L527 177L528 177L528 174z"/>
<path style="fill:#6d7581; stroke:none;" d="M529 174L528 178L529 178L529 174z"/>
<path style="fill:#7d9cca; stroke:none;" d="M535.667 174.333L536.333 174.667L535.667 174.333z"/>
<path style="fill:#b5cbe9; stroke:none;" d="M537 174L537 175L541 175L537 174z"/>
<path style="fill:#7d9cca; stroke:none;" d="M541.667 174.333L542.333 174.667L541.667 174.333M554 174L553 177L554 174M278 175L277 177L278 175z"/>
<path style="fill:#6d7581; stroke:none;" d="M281 175L281 176L285 176L281 175M294 175L290 181L294 175z"/>
<path style="fill:#7d9cca; stroke:none;" d="M528 175L529 176L528 175z"/>
<path style="fill:#6d7581; stroke:none;" d="M553 175L554 176L553 175M278 176L279 177L278 176z"/>
<path style="fill:#7d9cca; stroke:none;" d="M294 176L295 177L294 176z"/>
<path style="fill:#6d7581; stroke:none;" d="M552 176L551 179L552 176z"/>
<path style="fill:#b5cbe9; stroke:none;" d="M554 176L555 177L554 176z"/>
<path style="fill:#6d7581; stroke:none;" d="M277 177L278 178L277 177z"/>
<path style="fill:#7d9cca; stroke:none;" d="M527 177L530 181L527 177z"/>
<path style="fill:#b5cbe9; stroke:none;" d="M553 177L554 178L553 177z"/>
<path style="fill:#7d9cca; stroke:none;" d="M276 178L276 181L277 181L276 178M293 178L291 181L293 178z"/>
<path style="fill:#b5cbe9; stroke:none;" d="M552 178L545 182L545 183C547.946 182.428 552.094 181.496 552 178z"/>
<path style="fill:#7d9cca; stroke:none;" d="M644 178L643 179L643 180L643 181L646 178L644 178M746 178L745 179L745 180L745 181L748 178L746 178z"/>
<path style="fill:#b5cbe9; stroke:none;" d="M293 179L294 180L293 179M527 179L528 180L527 179z"/>
<path style="fill:#6d7581; stroke:none;" d="M529 179L530 180L529 179M549 179L547 180L547 181L549 179z"/>
<path style="fill:#7d9cca; stroke:none;" d="M550 179L551 180L550 179z"/>
<path style="fill:#6d7581; stroke:none;" d="M277 180L277 181L282 182L282 181L277 180z"/>
<path style="fill:#b5cbe9; stroke:none;" d="M292 180L293 181L292 180M528 180L529 181L528 180z"/>
<path style="fill:#6d7581; stroke:none;" d="M530 180L530 181L533 181L530 180z"/>
<path style="fill:#7d9cca; stroke:none;" d="M549 180L550 181L549 180M278 181L279 182L278 181z"/>
<path style="fill:#6d7581; stroke:none;" d="M287.667 181.333L288.333 181.667L287.667 181.333z"/>
<path style="fill:#7d9cca; stroke:none;" d="M289 181L290 182L289 181z"/>
<path style="fill:#b5cbe9; stroke:none;" d="M290.667 181.333L291.333 181.667L290.667 181.333M530 181L530 182L535 183L535 182L530 181z"/>
<path style="fill:#7d9cca; stroke:none;" d="M532.667 181.333L533.333 181.667L532.667 181.333z"/>
<path style="fill:#6d7581; stroke:none;" d="M534 181L534 182L537 182L534 181M543 181L543 182L546 182L543 181z"/>
<path style="fill:#7d9cca; stroke:none;" d="M546.667 181.333L547.333 181.667L546.667 181.333M280 182L280 183L284 183L280 182z"/>
<path style="fill:#6d7581; stroke:none;" d="M284 182L285 183L284 182z"/>
<path style="fill:#7d9cca; stroke:none;" d="M285 182L285 183L288 183L285 182z"/>
<path style="fill:#b5cbe9; stroke:none;" d="M288.667 182.333L289.333 182.667L288.667 182.333z"/>
<path style="fill:#7d9cca; stroke:none;" d="M535 182L535 183L539 183L535 182z"/>
<path style="fill:#6d7581; stroke:none;" d="M539.667 182.333L540.333 182.667L539.667 182.333z"/>
<path style="fill:#7d9cca; stroke:none;" d="M541 182L541 183L545 183L541 182M912 186C911.425 188.396 911.525 188.487 914 189L912 186z"/>
<path style="fill:#b5cbe9; stroke:none;" d="M934 194L952 216L953 216C951.134 206.378 942.185 198.562 934 194M340 195L340 196L344 196L340 195M338 196L337 198L338 196z"/>
<path style="fill:#7d9cca; stroke:none;" d="M339 196L337 199L339 196z"/>
<path style="fill:#6d7581; stroke:none;" d="M340.148 197.086C335.106 199.592 338.879 207.385 343.852 204.914C348.894 202.408 345.121 194.615 340.148 197.086z"/>
<path style="fill:#7d9cca; stroke:none;" d="M344 196L347 199L344 196z"/>
<path style="fill:#b5cbe9; stroke:none;" d="M345 196L346 197L345 196M165 200L175 198L175 238C178.282 230.18 178.125 208.376 175.682 200.148C174.204 195.17 167.148 196.687 165 200z"/>
<path style="fill:#2f3849; stroke:none;" d="M340.318 198.086C336.56 200.256 339.924 206.083 343.682 203.914C347.44 201.744 344.076 195.917 340.318 198.086z"/>
<path style="fill:#b5cbe9; stroke:none;" d="M346 197L347 198L346 197M388 200L389 200C397.95 193.264 397.011 206.625 400 211L401 210C398.837 206.112 395.65 188.199 388 200z"/>
<path style="fill:#7d9cca; stroke:none;" d="M167 198L167 199L175 199L167 198z"/>
<path style="fill:#b5cbe9; stroke:none;" d="M347 198L345 206C347.529 203.525 348.36 201.371 347 198z"/>
<path style="fill:#7d9cca; stroke:none;" d="M389 198L389 199L398 200L389 198z"/>
<path style="fill:#6d7581; stroke:none;" d="M166 199L166 211C159.418 209.259 153.072 207.252 148 213C154.89 209.537 159.02 210.156 166 213L166 199z"/>
<path style="fill:#2f3849; stroke:none;" d="M167 199L166 213C152.126 205.228 136.078 220.132 148.228 232.856C153.278 238.143 166.983 236.917 174 237L174 200L167 199z"/>
<path style="fill:#6d7581; stroke:none;" d="M168 199L168 200L174 200L174 237L163 236L166 235C168.789 239.301 174.441 238.476 174.941 232.981C175.955 221.843 175 210.187 175 199L168 199z"/>
<path style="fill:#b5cbe9; stroke:none;" d="M336 199L336 203L337 203L336 199z"/>
<path style="fill:#6d7581; stroke:none;" d="M389 199L389 200L397 200L398 213L402 211L402 210L398 211C398 202.801 398.125 199.032 389 199z"/>
<path style="fill:#7d9cca; stroke:none;" d="M165 200L165 211L166 211L165 200M388 200L389 238L390 238L388 200z"/>
<path style="fill:#2f3849; stroke:none;" d="M389 200C389 210.546 387.378 222.552 389.148 232.941C390.043 238.194 395.526 237.43 398 234C400.559 235.194 403.122 236.559 406 236.721C426.327 237.868 420.576 199.282 398 213L397 200L389 200z"/>
<path style="fill:#7d9cca; stroke:none;" d="M787 201L788 204L789 204L790 201L787 201M337 203L340 206L337 203M346 203L347 204L346 203z"/>
<path style="fill:#b5cbe9; stroke:none;" d="M387 203L388 204L387 203M337 204L338 205L337 204z"/>
<path style="fill:#7d9cca; stroke:none;" d="M345 204L346 205L345 204z"/>
<path style="fill:#b5cbe9; stroke:none;" d="M338 205L339 206L338 205z"/>
<path style="fill:#7d9cca; stroke:none;" d="M344 205L345 206L344 205z"/>
<path style="fill:#b5cbe9; stroke:none;" d="M337 208L337 209L347 208C347 219.496 351.183 239.411 341 247C344.398 247.073 346.663 244.284 347.566 240.999C350.026 232.057 352.19 200.817 337 208M152 208L152 209L161 209L152 208M182 238L183 238C183 232.25 179.938 212.342 185.318 209.047C188.362 207.183 192.708 210.156 196 210C177.716 198.671 178.69 226.801 182 238M197 208L197 209L202 209L197 208M213 208L213 209L224 209L213 208M244 208L244 209L257 209L244 208M269 238L270 238C270 232.117 266.917 212.512 272.318 209.032C275.687 206.862 279.532 210.188 283 210C264.44 198.5 269 227.393 269 238M284 208L284 209L293 209L284 208M304 208L304 209L313 209L304 208M362 208L362 209L373 209L362 208M402 208L402 209L411 209L402 208z"/>
<path style="fill:#7d9cca; stroke:none;" d="M155 208L155 209L159 209L155 208M184 208L184 209L191 209L184 208M200 208L202 210L200 208M216 208L216 209L221 209L216 208M248 208L248 209L254 209L248 208M270 209L270 210L280 210L270 209M287 208L287 209L291 209L287 208M307 208L307 209L311 209L307 208M337 237L338 237L338 209L347 209C332.374 202.865 337 228.844 337 237M365 208L365 209L370 209L365 208M405 208L405 209L409 209L405 208z"/>
<path style="fill:#b5cbe9; stroke:none;" d="M143 220L144 220L151 210C145.844 209.89 143.701 215.587 143 220z"/>
<path style="fill:#7d9cca; stroke:none;" d="M151 209L152 210L151 209M161 209L162 210L161 209z"/>
<path style="fill:#b5cbe9; stroke:none;" d="M162 209L162 210L165 211L162 209z"/>
<path style="fill:#6d7581; stroke:none;" d="M183 209C183 216.146 180.436 229.248 183.603 235.682C185.027 238.574 189.973 238.574 191.397 235.682C193.163 232.093 192 225.929 192 222L191 222L191 237L184 237L184 210L195 212L195 211L192 212C191.096 207.783 186.644 209 183 209z"/>
<path style="fill:#7d9cca; stroke:none;" d="M196 209L195 211L196 209z"/>
<path style="fill:#6d7581; stroke:none;" d="M196 210L196 211L201 210L201 215C202.624 210.724 200.029 209.083 196 210z"/>
<path style="fill:#b5cbe9; stroke:none;" d="M206 213L212 210L206 213z"/>
<path style="fill:#7d9cca; stroke:none;" d="M212 209L213 210L212 209z"/>
<path style="fill:#6d7581; stroke:none;" d="M213 209L213 210L230 214C225.364 208.61 219.622 209 213 209z"/>
<path style="fill:#7d9cca; stroke:none;" d="M224 209L225 210L224 209z"/>
<path style="fill:#b5cbe9; stroke:none;" d="M225 209L225 210L231 215L232 215L225 209M237 214L238 214L242 210C238.892 209.562 237.886 211.169 237 214z"/>
<path style="fill:#7d9cca; stroke:none;" d="M242 209L242 210L245 210L242 209z"/>
<path style="fill:#6d7581; stroke:none;" d="M245 209L245 210L256 210L245 209z"/>
<path style="fill:#7d9cca; stroke:none;" d="M256.667 209.333L257.333 209.667L256.667 209.333z"/>
<path style="fill:#b5cbe9; stroke:none;" d="M258 209L258 210L263 216L264 216L258 209z"/>
<path style="fill:#6d7581; stroke:none;" d="M280 220L279 220L278 237L271 237L271 210L279 213L284 210L280 212C277.936 208.817 271.747 207.334 270.318 212.148C268.738 217.47 268.738 229.53 270.318 234.852C273.01 243.917 278.899 233.352 279.015 229C279.095 225.963 279.62 223.006 280 220z"/>
<path style="fill:#7d9cca; stroke:none;" d="M283.667 209.333L284.333 209.667L283.667 209.333z"/>
<path style="fill:#6d7581; stroke:none;" d="M285 209L285 210L293 210L285 209z"/>
<path style="fill:#7d9cca; stroke:none;" d="M293 209L294 210L293 209z"/>
<path style="fill:#b5cbe9; stroke:none;" d="M294 209L294 210L300 213L300 212L294 209M300 211L303 209L300 211z"/>
<path style="fill:#7d9cca; stroke:none;" d="M303 209L304 210L303 209z"/>
<path style="fill:#6d7581; stroke:none;" d="M294 210L300 215C304.939 208.769 310.488 209.727 317 213C309.769 204.806 302.034 213.837 294 210z"/>
<path style="fill:#7d9cca; stroke:none;" d="M313 209L314 210L313 209z"/>
<path style="fill:#b5cbe9; stroke:none;" d="M314 209L317 211L314 209z"/>
<path style="fill:#6d7581; stroke:none;" d="M338 209L337 240L332 241L332 242C343.16 238.395 339 219.579 339 210L346 210L345 243L346 243L347 209L338 209z"/>
<path style="fill:#b5cbe9; stroke:none;" d="M352 217L353 217L360 210C355.926 209.914 353.607 213.565 352 217z"/>
<path style="fill:#7d9cca; stroke:none;" d="M359 211L362 210L359 211z"/>
<path style="fill:#6d7581; stroke:none;" d="M362 209L362 210L373 210L362 209z"/>
<path style="fill:#7d9cca; stroke:none;" d="M373 209L373 210L376 211L373 209z"/>
<path style="fill:#b5cbe9; stroke:none;" d="M375 209L375 210L382 217L383 217L375 209z"/>
<path style="fill:#7d9cca; stroke:none;" d="M398.333 209.667L398.667 210.333L398.333 209.667M401.667 209.333L402.333 209.667L401.667 209.333z"/>
<path style="fill:#6d7581; stroke:none;" d="M403 209L403 210L411 210L403 209z"/>
<path style="fill:#7d9cca; stroke:none;" d="M411 209L411 210L414 211L411 209z"/>
<path style="fill:#b5cbe9; stroke:none;" d="M413 209L414 210L413 209z"/>
<path style="fill:#7d9cca; stroke:none;" d="M149 210L150 211L149 210M163 210L164 211L163 210z"/>
<path style="fill:#2f3849; stroke:none;" d="M184 210L184 237L191 237C191 228.155 189.752 217.508 201 216L201 210L192 213L184 210z"/>
<path style="fill:#7d9cca; stroke:none;" d="M192 210L192 212L194 212L192 210M210 210L211 211L210 210z"/>
<path style="fill:#6d7581; stroke:none;" d="M211 210L206 215L212 211L211 210z"/>
<path style="fill:#2f3849; stroke:none;" d="M229 234C226.725 226.578 220.961 233.157 216.207 229.397C208.523 223.32 229.429 224 232 224C231.875 221.262 231.697 218.543 230.427 216.043C220.383 196.263 189.919 224.295 211.043 234.95C213.436 236.157 216.322 236.823 219 236.819C222.579 236.815 225.794 235.425 229 234z"/>
<path style="fill:#7d9cca; stroke:none;" d="M226 210L227 211L226 210M240 210L241 211L240 210z"/>
<path style="fill:#6d7581; stroke:none;" d="M238 212L240 217L241 217L239 212L244 211L238 212z"/>
<path style="fill:#2f3849; stroke:none;" d="M239 212L241 217C246.705 215.401 251.564 214.262 255 220C250.075 221.173 243.348 220.143 239.318 223.703C234.701 227.781 237.608 234.981 243.005 236.413C247.192 237.524 251.137 235.285 255 234L263 237C263 218.596 261.301 204.931 239 212z"/>
<path style="fill:#6d7581; stroke:none;" d="M257.667 210.333L258.333 210.667L257.667 210.333z"/>
<path style="fill:#2f3849; stroke:none;" d="M271 210L271 237L278 237C278 231.564 277.061 224.896 280.09 220.059C282.633 215.999 287.363 215.753 289.821 220.109C292.352 224.596 291 232.009 291 237L298 237C298 234.001 297.962 230.999 298.004 228C298.079 222.61 304.584 210.507 309.338 220.019C311.619 224.584 307.912 231.25 311.179 235.397C312.726 237.36 315.799 236.974 318 237C318 230.403 319.938 220.051 316.682 214.109C313.108 207.586 303.037 209.212 300 215C291.976 209.608 287.883 209.527 279 213C278.146 209.013 274.511 210 271 210z"/>
<path style="fill:#7d9cca; stroke:none;" d="M282 210L283 211L282 210M295 210L296 211L295 210z"/>
<path style="fill:#b5cbe9; stroke:none;" d="M336 210L336 239L337 239L336 210z"/>
<path style="fill:#2f3849; stroke:none;" d="M339 210C339 217.994 340.726 228.287 338.427 235.981C337.589 238.787 331.824 241.825 332.752 244.624C334.524 249.975 343.692 245.019 345.106 241.812C348.771 233.5 346 219.014 346 210L339 210z"/>
<path style="fill:#6d7581; stroke:none;" d="M360 210L361 211L360 210z"/>
<path style="fill:#2f3849; stroke:none;" d="M361.015 210.703C343.668 216.728 356.038 241.538 372.999 236.007C391.708 229.906 379.048 204.44 361.015 210.703z"/>
<path style="fill:#6d7581; stroke:none;" d="M374 210L375 211L374 210z"/>
<path style="fill:#7d9cca; stroke:none;" d="M400 210L401 211L400 210z"/>
<path style="fill:#6d7581; stroke:none;" d="M412 210L413 211L412 210z"/>
<path style="fill:#b5cbe9; stroke:none;" d="M414 210L414 211L418 215L419 215L414 210z"/>
<path style="fill:#7d9cca; stroke:none;" d="M148 211L149 212L148 211z"/>
<path style="fill:#b5cbe9; stroke:none;" d="M202 211L202 215L203 215L202 211z"/>
<path style="fill:#7d9cca; stroke:none;" d="M208 211L209 212L208 211M228 211L229 212L228 211M238 211L239 212L238 211z"/>
<path style="fill:#6d7581; stroke:none;" d="M259 211L262 217L263 217L259 211z"/>
<path style="fill:#7d9cca; stroke:none;" d="M260 211L261 212L260 211M280 211L281 212L280 211M296 211L297 212L296 211M300 211L301 212L300 211M316 211L317 212L316 211M357 211L358 212L357 211z"/>
<path style="fill:#6d7581; stroke:none;" d="M358 211L359 212L358 211M376 211L378 213L376 211z"/>
<path style="fill:#7d9cca; stroke:none;" d="M377 211L378 212L377 211z"/>
<path style="fill:#b5cbe9; stroke:none;" d="M387 211L387 214L388 214L387 211z"/>
<path style="fill:#6d7581; stroke:none;" d="M414 211L417 214L414 211z"/>
<path style="fill:#7d9cca; stroke:none;" d="M415 211L416 212L415 211z"/>
<path style="fill:#f1f5f8; stroke:none;" d="M765 211L757 221L765 211z"/>
<path style="fill:#7d9cca; stroke:none;" d="M147 212L148 213L147 212M207 212L208 213L207 212M229 212L230 213L229 212M261 212L262 213L261 212M297 212L298 213L297 212z"/>
<path style="fill:#b5cbe9; stroke:none;" d="M317 212L318 215L319 215L317 212z"/>
<path style="fill:#6d7581; stroke:none;" d="M356.667 212.333L357.333 212.667L356.667 212.333z"/>
<path style="fill:#7d9cca; stroke:none;" d="M378 212L379 213L378 212M416 212L417 213L416 212M146 213L145 215L146 213M206 213L207 214L206 213M317 213L318 214L317 213z"/>
<path style="fill:#6d7581; stroke:none;" d="M355 213C352.083 218.803 351.49 223.659 353 230L354 230L355 213M379 213L381 218L382 218L379 213M146 214L147 215L146 214z"/>
<path style="fill:#b5cbe9; stroke:none;" d="M205 214L203 219L204 219L205 214z"/>
<path style="fill:#6d7581; stroke:none;" d="M212 220C213.745 220.516 215.191 220.884 217.024 220.965C230.841 221.576 216.633 207.775 212 220z"/>
<path style="fill:#7d9cca; stroke:none;" d="M230 214L232 216L230 214M238 214L239 215L238 214M262 214L263 215L262 214z"/>
<path style="fill:#6d7581; stroke:none;" d="M317 214L318 237L311 235L310 235C311.967 238.034 317.311 239.47 318.682 234.852C320.25 229.57 320.089 218.521 317 214z"/>
<path style="fill:#7d9cca; stroke:none;" d="M354 214L355 215L354 214M380 214L381 215L380 214M417 214L419 216L417 214z"/>
<path style="fill:#6d7581; stroke:none;" d="M145.333 215.667L145.667 216.333L145.333 215.667M158 215L158 216L161 216L158 215z"/>
<path style="fill:#7d9cca; stroke:none;" d="M201.333 215.667L201.667 216.333L201.333 215.667M205 215L206 216L205 215M217 215L217 216L221 216L217 215z"/>
<path style="fill:#6d7581; stroke:none;" d="M230 215L231 216L230 215z"/>
<path style="fill:#b5cbe9; stroke:none;" d="M238 215L241 219L238 215z"/>
<path style="fill:#6d7581; stroke:none;" d="M246 215L246 216L251 216L246 215z"/>
<path style="fill:#7d9cca; stroke:none;" d="M318 215L319 216L318 215M353 215L354 216L353 215z"/>
<path style="fill:#6d7581; stroke:none;" d="M366 215L366 216L369 216L366 215z"/>
<path style="fill:#7d9cca; stroke:none;" d="M381 215L382 216L381 215z"/>
<path style="fill:#6d7581; stroke:none;" d="M403 215L403 216L406 216L403 215M417 215L418 216L417 215M155 216L153 220L154 220L157 217L155 216z"/>
<path style="fill:#7d9cca; stroke:none;" d="M157 216L158 217L157 216z"/>
<path style="fill:#b5cbe9; stroke:none;" d="M154 222L155 222C157.827 216.667 162.061 217.625 164 223C166.332 215.635 156.069 215.033 154 222z"/>
<path style="fill:#7d9cca; stroke:none;" d="M161 216L162 217L161 216z"/>
<path style="fill:#6d7581; stroke:none;" d="M162 216L165 218L162 216M192 221L201 217C196.936 215.465 194.137 217.534 192 221M205 216L206 217L205 216z"/>
<path style="fill:#b5cbe9; stroke:none;" d="M214 218L217 216L214 218z"/>
<path style="fill:#f1f5f8; stroke:none;" d="M214 218L214 219L223 219C219.865 216.556 217.664 216.636 214 218z"/>
<path style="fill:#b5cbe9; stroke:none;" d="M219 216L219 217L223 218L223 217L219 216z"/>
<path style="fill:#6d7581; stroke:none;" d="M231 216L232 224C229.343 224 207.966 223.023 215.337 229.401C219.992 233.429 225.611 227.653 229 234L226 235L226 236C236.148 229.688 216.335 229.628 214 225C220.605 225 237.868 227.485 231 216z"/>
<path style="fill:#b5cbe9; stroke:none;" d="M232 216L232 226C235.031 223.352 234.257 218.98 232 216z"/>
<path style="fill:#7d9cca; stroke:none;" d="M239 216L240 217L239 216z"/>
<path style="fill:#6d7581; stroke:none;" d="M242.667 216.333L243.333 216.667L242.667 216.333z"/>
<path style="fill:#7d9cca; stroke:none;" d="M244 216L244 217L247 217L244 216z"/>
<path style="fill:#b5cbe9; stroke:none;" d="M247 216L247 217L250 217L247 216z"/>
<path style="fill:#7d9cca; stroke:none;" d="M250.667 216.333L251.333 216.667L250.667 216.333z"/>
<path style="fill:#6d7581; stroke:none;" d="M252 216L254 220L245 220L245 221L255 220L252 216z"/>
<path style="fill:#7d9cca; stroke:none;" d="M263 216L263 220L264 220L263 216z"/>
<path style="fill:#6d7581; stroke:none;" d="M280 219L287 217L280 219M298 237L291 237L289 217L288 217C289.233 220.382 289.947 223.381 289.996 227C290.038 230.086 291.77 244.209 297.972 236.397C303.097 229.941 294.444 215.769 309 218C297.069 209.909 298 230.711 298 237z"/>
<path style="fill:#b5cbe9; stroke:none;" d="M319 216L319 238L320 238L319 216z"/>
<path style="fill:#6d7581; stroke:none;" d="M362 218L365 217L362 218z"/>
<path style="fill:#7d9cca; stroke:none;" d="M365 216L366 217L365 216z"/>
<path style="fill:#b5cbe9; stroke:none;" d="M362 223L363 223L368 217C363.994 216.457 362.566 219.417 362 223z"/>
<path style="fill:#7d9cca; stroke:none;" d="M368.667 216.333L369.333 216.667L368.667 216.333z"/>
<path style="fill:#6d7581; stroke:none;" d="M370 216L370 217L373 220L374 220L370 216M411 225L410 225C404.251 234.848 393.805 224.238 402 217C389.487 216.713 405.648 243.023 411 225z"/>
<path style="fill:#7d9cca; stroke:none;" d="M402 216L403 217L402 216z"/>
<path style="fill:#b5cbe9; stroke:none;" d="M399 221L400 221L407 218C403.324 215.772 400.868 217.451 399 221z"/>
<path style="fill:#7d9cca; stroke:none;" d="M405 216L405 217L408 218L405 216z"/>
<path style="fill:#6d7581; stroke:none;" d="M407 216L408 217L407 216M418 216L418 219L419 219L418 216z"/>
<path style="fill:#b5cbe9; stroke:none;" d="M419 216C420.644 224.855 419.648 232.473 411 237L411 238C419.609 235.065 424.419 223.931 419 216z"/>
<path style="fill:#7d9cca; stroke:none;" d="M144 217L145 218L144 217M155 217L156 218L155 217z"/>
<path style="fill:#f1f5f8; stroke:none;" d="M158.118 217.851C152.131 219.783 154.544 230.434 160.87 228.338C166.523 226.465 164.157 215.903 158.118 217.851z"/>
<path style="fill:#7d9cca; stroke:none;" d="M196.667 217.333L197.333 217.667L196.667 217.333z"/>
<path style="fill:#b5cbe9; stroke:none;" d="M198 217L198 218L202 218L198 217z"/>
<path style="fill:#7d9cca; stroke:none;" d="M204 217L205 218L204 217M240 217L240 218L243 218L240 217z"/>
<path style="fill:#b5cbe9; stroke:none;" d="M243 217L243 218L247 218L243 217M251.667 217.333L252.333 217.667L251.667 217.333z"/>
<path style="fill:#7d9cca; stroke:none;" d="M280 220L284 218L280 220z"/>
<path style="fill:#b5cbe9; stroke:none;" d="M284.667 217.333L285.333 217.667L284.667 217.333z"/>
<path style="fill:#7d9cca; stroke:none;" d="M286 217L286 218L289 219L286 217M302.667 217.333L303.333 217.667L302.667 217.333z"/>
<path style="fill:#b5cbe9; stroke:none;" d="M304.667 217.333L305.333 217.667L304.667 217.333z"/>
<path style="fill:#7d9cca; stroke:none;" d="M306 217L307 218L306 217M352 217L353 218L352 217M363 217L364 218L363 217z"/>
<path style="fill:#f1f5f8; stroke:none;" d="M366.14 217.851C360.456 219.685 362.67 230.392 368.871 228.338C374.692 226.409 372.427 215.822 366.14 217.851z"/>
<path style="fill:#b5cbe9; stroke:none;" d="M369 217L369 218L372 219L369 217z"/>
<path style="fill:#7d9cca; stroke:none;" d="M371 217L372 218L371 217M382.333 217.667L382.667 218.333L382.333 217.667M400 217L401 218L400 217z"/>
<path style="fill:#f1f5f8; stroke:none;" d="M403.093 217.931C396.765 219.73 399.3 230.99 405.867 228.377C411.02 226.327 409.161 216.207 403.093 217.931z"/>
<path style="fill:#6d7581; stroke:none;" d="M408 217L410 221L411 221L408 217M144 218L144 228L145 228L144 218z"/>
<path style="fill:#7d9cca; stroke:none;" d="M164 218L165 219L164 218z"/>
<path style="fill:#b5cbe9; stroke:none;" d="M194 220L197 218L194 220z"/>
<path style="fill:#6d7581; stroke:none;" d="M204 218L204 221L205 221L204 218z"/>
<path style="fill:#7d9cca; stroke:none;" d="M213.333 218.667L213.667 219.333L213.333 218.667M223 218L224 219L223 218M232 218L233 219L232 218z"/>
<path style="fill:#b5cbe9; stroke:none;" d="M253 218C245.613 220.183 238.103 218.088 235 227L236 227C240.157 219.42 246.84 221.117 254 219L253 218M264 218C264 222.663 266.266 235.245 260.852 237.378C257.628 238.648 253.454 236.599 250 237L250 238C253.77 237.93 258.229 239.956 261.852 238.396C267.056 236.154 265.792 222.271 264 218M282 218L283 219L282 218M287 218L288 219L287 218M301 218L299 238L300 238L301 218M307 218C309.472 228.382 303.942 238.96 318 239L318 238C303.811 237.832 312.866 225.743 307 218z"/>
<path style="fill:#7d9cca; stroke:none;" d="M308 218L309 219L308 218z"/>
<path style="fill:#b5cbe9; stroke:none;" d="M351 218C350.684 223.421 349.944 229.647 355 233L351 218z"/>
<path style="fill:#7d9cca; stroke:none;" d="M362 218L363 219L362 218z"/>
<path style="fill:#b5cbe9; stroke:none;" d="M383.333 218.667L383.667 219.333L383.333 218.667z"/>
<path style="fill:#7d9cca; stroke:none;" d="M399 218L400 219L399 218z"/>
<path style="fill:#b5cbe9; stroke:none;" d="M408 218L409 226L410 226L408 218z"/>
<path style="fill:#7d9cca; stroke:none;" d="M419.333 218.667L419.667 219.333L419.333 218.667z"/>
<path style="fill:#b5cbe9; stroke:none;" d="M954 218C952.533 231.016 926.37 223.414 917 225L917 226C930.372 226 949.57 222.619 961.83 228.97C983.707 240.301 976.906 267.879 961 280L961 281C975.156 276.184 980.484 256.051 975.532 243C972.824 235.86 967.833 231.588 963 226L996 226L996 224C982.085 224 964.855 227.635 954 218z"/>
<path style="fill:#6d7581; stroke:none;" d="M165 219L165 227L166 227L165 219z"/>
<path style="fill:#7d9cca; stroke:none;" d="M203 219L203 223L204 223L203 219z"/>
<path style="fill:#b5cbe9; stroke:none;" d="M214 219L214 220L223 220L214 219z"/>
<path style="fill:#7d9cca; stroke:none;" d="M253 219L254 220L253 219z"/>
<path style="fill:#b5cbe9; stroke:none;" d="M281 219L282 220L281 219M288 219L289 238L290 238L288 219z"/>
<path style="fill:#7d9cca; stroke:none;" d="M300 219L301 220L300 219z"/>
<path style="fill:#6d7581; stroke:none;" d="M309.333 219.667L309.667 220.333L309.333 219.667M361 219C359.922 223.708 360.297 226.732 364 230L361 219z"/>
<path style="fill:#7d9cca; stroke:none;" d="M372 219L373 226L374 226L372 219z"/>
<path style="fill:#6d7581; stroke:none;" d="M382 219L382 227L383 227L382 219z"/>
<path style="fill:#7d9cca; stroke:none;" d="M409 219L410 220L409 219M143 220L143 226L144 226L143 220M153 220L153 226L154 226L153 220z"/>
<path style="fill:#b5cbe9; stroke:none;" d="M193 220L192 238L193 238L193 220z"/>
<path style="fill:#7d9cca; stroke:none;" d="M243.667 220.333L244.333 220.667L243.667 220.333z"/>
<path style="fill:#6d7581; stroke:none;" d="M263 220L263 223L264 223L263 220z"/>
<path style="fill:#b5cbe9; stroke:none;" d="M280 220C280 228.771 282.233 237.867 271 238L271 239C281.81 238.969 284.031 229.606 280 220z"/>
<path style="fill:#7d9cca; stroke:none;" d="M289 220L290 221L289 220z"/>
<path style="fill:#b5cbe9; stroke:none;" d="M372.333 220.667L372.667 221.333L372.333 220.667z"/>
<path style="fill:#7d9cca; stroke:none;" d="M383 220L383 226L384 226L383 220M398 220L398 226L399 226L398 220z"/>
<path style="fill:#6d7581; stroke:none;" d="M419 220L419 227L420 227L419 220z"/>
<path style="fill:#7d9cca; stroke:none;" d="M165 221L165 225L166 225L165 221M192.333 221.667L192.667 222.333L192.333 221.667M240 221L241 222L240 221z"/>
<path style="fill:#6d7581; stroke:none;" d="M241 221L241 222L244 222L241 221z"/>
<path style="fill:#7d9cca; stroke:none;" d="M299 221L299 224L300 224L299 221M309 221L309 237L310 237L309 221M361 221L361 226L362 226L361 221M410 221L410 225L411 225L410 221M238 222L237 224L238 222z"/>
<path style="fill:#6d7581; stroke:none;" d="M239.667 222.333L240.333 222.667L239.667 222.333M310 222L311 223L310 222z"/>
<path style="fill:#7d9cca; stroke:none;" d="M751 224L754 222L751 224z"/>
<path style="fill:#6d7581; stroke:none;" d="M203 223L204 224L203 223M238 223L239 224L238 223z"/>
<path style="fill:#7d9cca; stroke:none;" d="M263.333 223.667L263.667 224.333L263.333 223.667M279 223L279 237L280 237L279 223M955 223L959 226L955 223z"/>
<path style="fill:#b5cbe9; stroke:none;" d="M164 224L162 229L164 224z"/>
<path style="fill:#7d9cca; stroke:none;" d="M203 224L203 227L204 227L203 224M232 224L233 225L232 224z"/>
<path style="fill:#6d7581; stroke:none;" d="M237 224L238 225L237 224M247.149 224.743C241.377 227.331 247.015 233.741 251.851 230.968C257.693 227.617 252.077 222.533 247.149 224.743z"/>
<path style="fill:#b5cbe9; stroke:none;" d="M362 224L365 229L362 224M372 224L370 229L372 224M387 224L387 234L388 234L387 224M154 225L157 229L154 225z"/>
<path style="fill:#7d9cca; stroke:none;" d="M214 225L214 226L232 226L214 225M236 225L237 226L236 225M247 225L247 226L253 226L247 225z"/>
<path style="fill:#6d7581; stroke:none;" d="M263 225L263 232L264 232L263 225z"/>
<path style="fill:#b5cbe9; stroke:none;" d="M143 226C143.976 232.249 146.929 236.045 153 238L153 237L143 226z"/>
<path style="fill:#6d7581; stroke:none;" d="M153 226L156 230L153 226M204 226L206 232L207 232L204 226z"/>
<path style="fill:#b5cbe9; stroke:none;" d="M214 226L217 229L214 226z"/>
<path style="fill:#f1f5f8; stroke:none;" d="M216 226C218.522 229.886 222.032 229.028 225 226L216 226z"/>
<path style="fill:#b5cbe9; stroke:none;" d="M223 229C227.564 228.615 229.565 230.475 230 235L231 235L228 226L223 229z"/>
<path style="fill:#6d7581; stroke:none;" d="M236 226L236 232L237 232L236 226z"/>
<path style="fill:#7d9cca; stroke:none;" d="M245 226L246 227L245 226z"/>
<path style="fill:#b5cbe9; stroke:none;" d="M246 226C245.932 230.156 248.196 230.849 252 230L252 229L246 229L248 227L246 226z"/>
<path style="fill:#f1f5f8; stroke:none;" d="M246 227L246 229C249.573 229.871 251.715 229.656 253 226L246 227z"/>
<path style="fill:#b5cbe9; stroke:none;" d="M253.333 226.667L253.667 227.333L253.333 226.667z"/>
<path style="fill:#6d7581; stroke:none;" d="M373 226L371 230L373 226z"/>
<path style="fill:#b5cbe9; stroke:none;" d="M383 226L381 232L382 232L383 226M399 226L401 228L399 226z"/>
<path style="fill:#7d9cca; stroke:none;" d="M409 226L410 227L409 226M154 227L155 228L154 227M164 227L161 229L161 230L164 227z"/>
<path style="fill:#b5cbe9; stroke:none;" d="M203 227C204.199 232.942 208.058 236.801 214 238L214 237L203 227z"/>
<path style="fill:#7d9cca; stroke:none;" d="M235 227L235 231L236 231L235 227M362 227L363 228L362 227M372 227L373 228L372 227M382.333 227.667L382.667 228.333L382.333 227.667M399 227L400 228L399 227z"/>
<path style="fill:#b5cbe9; stroke:none;" d="M408 227L407 229L408 227z"/>
<path style="fill:#7d9cca; stroke:none;" d="M419 227L420 228L419 227M144 228L145 229L144 228M155 228L156 229L155 228z"/>
<path style="fill:#6d7581; stroke:none;" d="M164 228L165 229L164 228z"/>
<path style="fill:#7d9cca; stroke:none;" d="M224 228L225 229L224 228M227 228L228 229L227 228M253 228L254 229L253 228M352 228L353 229L352 228M363 228L364 229L363 228M371 228L372 229L371 228M400 228L401 229L400 228M408 228L409 229L408 228z"/>
<path style="fill:#6d7581; stroke:none;" d="M418 228L413 236L418 228M145 229L151 236L145 229z"/>
<path style="fill:#7d9cca; stroke:none;" d="M156.667 229.333L157.333 229.667L156.667 229.333z"/>
<path style="fill:#b5cbe9; stroke:none;" d="M158 229L158 230L161 230L158 229z"/>
<path style="fill:#6d7581; stroke:none;" d="M163 229L164 230L163 229z"/>
<path style="fill:#7d9cca; stroke:none;" d="M204 229L205 230L204 229M216.667 229.333L217.333 229.667L216.667 229.333z"/>
<path style="fill:#b5cbe9; stroke:none;" d="M218 229L218 230L222 230L218 229z"/>
<path style="fill:#7d9cca; stroke:none;" d="M222 229L223 230L222 229M228 229L229 230L228 229M245 229L246 230L245 229M252 229L253 230L252 229M364.667 229.333L365.333 229.667L364.667 229.333z"/>
<path style="fill:#b5cbe9; stroke:none;" d="M366 229L366 230L369 230L366 229z"/>
<path style="fill:#7d9cca; stroke:none;" d="M369.667 229.333L370.333 229.667L369.667 229.333z"/>
<path style="fill:#6d7581; stroke:none;" d="M381 229L375 235L375 236L381 229z"/>
<path style="fill:#7d9cca; stroke:none;" d="M401.667 229.333L402.333 229.667L401.667 229.333z"/>
<path style="fill:#b5cbe9; stroke:none;" d="M403 229L403 230L406 230L403 229z"/>
<path style="fill:#7d9cca; stroke:none;" d="M406 229L407 230L406 229z"/>
<path style="fill:#6d7581; stroke:none;" d="M157 230L157 231L162 231L157 230z"/>
<path style="fill:#7d9cca; stroke:none;" d="M229 230L230 231L229 230M246 230L247 231L246 230M251 230L252 231L251 230M353 230L354 231L353 230z"/>
<path style="fill:#6d7581; stroke:none;" d="M365 230L365 231L370 231L365 230z"/>
<path style="fill:#7d9cca; stroke:none;" d="M381 230L382 231L381 230M418 230L419 231L418 230M145 231L146 232L145 231M205 231L206 232L205 231M230.333 231.667L230.667 232.333L230.333 231.667z"/>
<path style="fill:#b5cbe9; stroke:none;" d="M235 231L241 238L241 237L235 231z"/>
<path style="fill:#6d7581; stroke:none;" d="M354 231L355 232L354 231z"/>
<path style="fill:#7d9cca; stroke:none;" d="M146 232L147 233L146 232M206 232L207 233L206 232M236 232L237 233L236 232M263 232L264 233L263 232z"/>
<path style="fill:#6d7581; stroke:none;" d="M355 232L360 236L360 235L355 232z"/>
<path style="fill:#7d9cca; stroke:none;" d="M380 232L381 233L380 232M417 232L418 233L417 232M147 233L148 234L147 233z"/>
<path style="fill:#6d7581; stroke:none;" d="M207 233L207 234L221 238L221 237L207 233M237 233L240 236L237 233M263.333 233.667L263.667 234.333L263.333 233.667z"/>
<path style="fill:#7d9cca; stroke:none;" d="M355 233L357 235L355 233z"/>
<path style="fill:#b5cbe9; stroke:none;" d="M379 233L379 235L381 233L379 233z"/>
<path style="fill:#7d9cca; stroke:none;" d="M416 233L417 234L416 233M148 234L149 235L148 234M208 234L209 235L208 234M229 234L230 235L229 234M237 234L238 235L237 234z"/>
<path style="fill:#6d7581; stroke:none;" d="M244 237L244 238L263 238L263 237L255 234L244 237z"/>
<path style="fill:#b5cbe9; stroke:none;" d="M355 234L356 235L355 234z"/>
<path style="fill:#7d9cca; stroke:none;" d="M378 234L379 235L378 234z"/>
<path style="fill:#6d7581; stroke:none;" d="M398 234L390 237L390 238L401 236L398 234z"/>
<path style="fill:#7d9cca; stroke:none;" d="M415 234L416 235L415 234M149 235L150 236L149 235M164 235L167 238L164 235M209 235L210 236L209 235M227 235L228 236L227 235z"/>
<path style="fill:#b5cbe9; stroke:none;" d="M228 235L229 236L228 235z"/>
<path style="fill:#7d9cca; stroke:none;" d="M238 235L239 236L238 235M263.333 235.667L263.667 236.333L263.333 235.667z"/>
<path style="fill:#b5cbe9; stroke:none;" d="M357 235L357 236L362 238L362 237L357 235z"/>
<path style="fill:#7d9cca; stroke:none;" d="M358 235L359 236L358 235M376 235L377 236L376 235z"/>
<path style="fill:#b5cbe9; stroke:none;" d="M377 235L378 236L377 235z"/>
<path style="fill:#7d9cca; stroke:none;" d="M397 238L400 235L397 238M414 235L415 236L414 235M151 236L152 237L151 236z"/>
<path style="fill:#6d7581; stroke:none;" d="M152 236L152 237L162 237L162 236L152 236z"/>
<path style="fill:#7d9cca; stroke:none;" d="M162 236L163 237L162 236z"/>
<path style="fill:#b5cbe9; stroke:none;" d="M163.667 236.333L164.333 236.667L163.667 236.333z"/>
<path style="fill:#7d9cca; stroke:none;" d="M211 236L212 237L211 236z"/>
<path style="fill:#6d7581; stroke:none;" d="M222 236L222 237L225 237L222 236z"/>
<path style="fill:#7d9cca; stroke:none;" d="M225 236L226 237L225 236z"/>
<path style="fill:#b5cbe9; stroke:none;" d="M226.667 236.333L227.333 236.667L226.667 236.333z"/>
<path style="fill:#7d9cca; stroke:none;" d="M240 236L240 237L244 238L244 237L240 236z"/>
<path style="fill:#6d7581; stroke:none;" d="M241.667 236.333L242.333 236.667L241.667 236.333z"/>
<path style="fill:#7d9cca; stroke:none;" d="M251 236L252 237L251 236M254 236L255 237L254 236M360 236L361 237L360 236z"/>
<path style="fill:#6d7581; stroke:none;" d="M361 236L361 237L364 237L361 236M371 236L371 237L374 237L371 236z"/>
<path style="fill:#7d9cca; stroke:none;" d="M374 236L375 237L374 236z"/>
<path style="fill:#b5cbe9; stroke:none;" d="M375.667 236.333L376.333 236.667L375.667 236.333z"/>
<path style="fill:#6d7581; stroke:none;" d="M389 236L390 237L389 236z"/>
<path style="fill:#b5cbe9; stroke:none;" d="M399 236L399 237L403 238L403 237L399 236z"/>
<path style="fill:#7d9cca; stroke:none;" d="M401 236L402 237L401 236z"/>
<path style="fill:#6d7581; stroke:none;" d="M402.667 236.333L403.333 236.667L402.667 236.333M405 237L405 238L412 237L405 237z"/>
<path style="fill:#7d9cca; stroke:none;" d="M412 236L413 237L412 236M153.667 237.333L154.333 237.667L153.667 237.333M159.667 237.333L160.333 237.667L159.667 237.333z"/>
<path style="fill:#b5cbe9; stroke:none;" d="M161.667 237.333L162.333 237.667L161.667 237.333M165 237L166 238L165 237z"/>
<path style="fill:#7d9cca; stroke:none;" d="M174 237L175 238L174 237M183 237L184 238L183 237M191 237L192 238L191 237M214.667 237.333L215.333 237.667L214.667 237.333M221 237L221 238L224 238L221 237z"/>
<path style="fill:#b5cbe9; stroke:none;" d="M224.667 237.333L225.333 237.667L224.667 237.333z"/>
<path style="fill:#7d9cca; stroke:none;" d="M248.667 237.333L249.333 237.667L248.667 237.333M255 237L256 238L255 237M270 237L271 238L270 237M278 237L279 238L278 237M290 237L291 238L290 237M298 237L299 238L298 237M310 237L311 238L310 237M318 237L319 238L318 237M362 237L362 238L365 238L362 237z"/>
<path style="fill:#6d7581; stroke:none;" d="M365 237L365 238L370 238L365 237z"/>
<path style="fill:#7d9cca; stroke:none;" d="M370 237L370 238L373 238L370 237z"/>
<path style="fill:#b5cbe9; stroke:none;" d="M373.667 237.333L374.333 237.667L373.667 237.333M388 237L389 238L388 237M398 237L399 238L398 237z"/>
<path style="fill:#7d9cca; stroke:none;" d="M403.667 237.333L404.333 237.667L403.667 237.333M409.667 237.333L410.333 237.667L409.667 237.333z"/>
<path style="fill:#b5cbe9; stroke:none;" d="M155 238L155 239L159 239L155 238M167 238L167 239L174 239L167 238M184 238L184 239L191 239L184 238M216 238L216 239L221 239L216 238M243 238L243 239L248 239L243 238M291 238L291 239L298 239L291 238M365 238L365 239L370 239L365 238M389 238L389 239L397 239L389 238M405 238L405 239L409 239L405 238M330 245L331 245L335 240C331.418 239.246 330.507 241.81 330 245z"/>
<path style="fill:#7d9cca; stroke:none;" d="M335.667 239.333L336.333 239.667L335.667 239.333M332 240L333 241L332 240M346 241L347 242L346 241M331 242L332 243L331 242z"/>
<path style="fill:#6d7581; stroke:none;" d="M331 243C333.18 249.902 339.974 247.635 345 245L345 244C339.269 245.906 335.682 247.813 331 243z"/>
<path style="fill:#7d9cca; stroke:none;" d="M345 243L346 244L345 243M330 245L334 248L334 247L330 245z"/>
<path style="fill:#b5cbe9; stroke:none;" d="M330 246L330 248L332 248L330 246z"/>
<path style="fill:#7d9cca; stroke:none;" d="M342 246L343 247L342 246M339.667 247.333L340.333 247.667L339.667 247.333z"/>
<path style="fill:#b5cbe9; stroke:none;" d="M334 248L334 249L339 249L334 248M959 281C943.955 288.24 922.324 285 906 285L820 285C806.938 285 791.759 282.841 779 285L779 286L918 286L942 286.028L949.972 287.417L959 281M748 285L766 286C760.99 283.892 752.844 282.104 748 285z"/>
<path style="fill:#7d9cca; stroke:none;" d="M752 284L752 286L755 286L755 284L752 284M947 286L950 284L947 286z"/>
<path style="fill:#b5cbe9; stroke:none;" d="M693.004 286.047C687.683 288.541 684.748 301.002 693.004 297.712C699.677 295.053 701.706 281.968 693.004 286.047z"/>
</svg>
